G04 #@! TF.GenerationSoftware,KiCad,Pcbnew,(6.0.0)*
G04 #@! TF.CreationDate,2022-01-15T23:36:52+01:00*
G04 #@! TF.ProjectId,apa102nano,61706131-3032-46e6-916e-6f2e6b696361,rev?*
G04 #@! TF.SameCoordinates,Original*
G04 #@! TF.FileFunction,Copper,L1,Top*
G04 #@! TF.FilePolarity,Positive*
%FSLAX46Y46*%
G04 Gerber Fmt 4.6, Leading zero omitted, Abs format (unit mm)*
G04 Created by KiCad (PCBNEW (6.0.0)) date 2022-01-15 23:36:52*
%MOMM*%
%LPD*%
G01*
G04 APERTURE LIST*
G04 #@! TA.AperFunction,Profile*
%ADD10C,0.050000*%
G04 #@! TD*
G04 #@! TA.AperFunction,ComponentPad*
%ADD11C,3.000000*%
G04 #@! TD*
G04 #@! TA.AperFunction,ComponentPad*
%ADD12R,3.000000X3.000000*%
G04 #@! TD*
G04 #@! TA.AperFunction,SMDPad,CuDef*
%ADD13R,1.250000X1.500000*%
G04 #@! TD*
G04 #@! TA.AperFunction,SMDPad,CuDef*
%ADD14R,2.700000X3.750000*%
G04 #@! TD*
G04 #@! TA.AperFunction,ComponentPad*
%ADD15C,1.524000*%
G04 #@! TD*
G04 #@! TA.AperFunction,Conductor*
%ADD16C,1.000000*%
G04 #@! TD*
G04 #@! TA.AperFunction,Conductor*
%ADD17C,2.000000*%
G04 #@! TD*
G04 #@! TA.AperFunction,Conductor*
%ADD18C,0.500000*%
G04 #@! TD*
G04 APERTURE END LIST*
D10*
X103000000Y-46000000D02*
X61000000Y-46000000D01*
X105000000Y-48000000D02*
G75*
G03*
X103000000Y-46000000I-2000000J0D01*
G01*
X103000000Y-81000000D02*
G75*
G03*
X105000000Y-79000000I0J2000000D01*
G01*
X59000000Y-79000000D02*
G75*
G03*
X61000000Y-81000000I2000000J0D01*
G01*
X61000000Y-46000000D02*
G75*
G03*
X59000000Y-48000000I0J-2000000D01*
G01*
X105000000Y-79000000D02*
X105000000Y-48000000D01*
X61000000Y-81000000D02*
X103000000Y-81000000D01*
X59000000Y-48000000D02*
X59000000Y-79000000D01*
D11*
X78240000Y-54000000D03*
D12*
X63000000Y-54000000D03*
D11*
X73160000Y-54000000D03*
X68080000Y-54000000D03*
X101080000Y-54000000D03*
D12*
X96000000Y-54000000D03*
D13*
X84000000Y-55250000D03*
X84000000Y-52750000D03*
D14*
X89000000Y-50225000D03*
X89000000Y-57775000D03*
D15*
X64490000Y-78350000D03*
X67030000Y-78350000D03*
X69570000Y-78350000D03*
X72110000Y-78350000D03*
X74650000Y-78350000D03*
X77190000Y-78350000D03*
X79730000Y-78350000D03*
X82270000Y-78350000D03*
X84810000Y-78350000D03*
X87350000Y-78350000D03*
X89890000Y-78350000D03*
X92430000Y-78350000D03*
X94970000Y-78350000D03*
X97510000Y-78350000D03*
X100050000Y-78350000D03*
X64490000Y-63110000D03*
X67030000Y-63110000D03*
X69570000Y-63110000D03*
X72110000Y-63110000D03*
X74650000Y-63110000D03*
X77190000Y-63110000D03*
X79730000Y-63110000D03*
X82270000Y-63110000D03*
X84810000Y-63110000D03*
X87350000Y-63110000D03*
X89890000Y-63110000D03*
X92430000Y-63110000D03*
X94970000Y-63110000D03*
X97510000Y-63110000D03*
X100050000Y-63110000D03*
D16*
X97510000Y-69510000D02*
X97510000Y-78350000D01*
X92430000Y-64430000D02*
X97510000Y-69510000D01*
X92430000Y-63110000D02*
X92430000Y-64430000D01*
D17*
X96000000Y-54000000D02*
X96000000Y-56000000D01*
X93225000Y-58775000D02*
X89000000Y-58775000D01*
X96000000Y-56000000D02*
X93225000Y-58775000D01*
X89000000Y-58775000D02*
X79775000Y-58775000D01*
X78240000Y-57240000D02*
X78240000Y-54000000D01*
X79775000Y-58775000D02*
X78240000Y-57240000D01*
D16*
X86475000Y-55250000D02*
X89000000Y-57775000D01*
X84000000Y-55250000D02*
X86475000Y-55250000D01*
X92430000Y-61205000D02*
X89000000Y-57775000D01*
X92430000Y-63110000D02*
X92430000Y-61205000D01*
D18*
X67030000Y-60130000D02*
X73160000Y-54000000D01*
X67030000Y-63110000D02*
X67030000Y-60130000D01*
D16*
X86475000Y-52750000D02*
X89000000Y-50225000D01*
X84000000Y-52750000D02*
X86475000Y-52750000D01*
D17*
X89000000Y-49500000D02*
X64775000Y-49500000D01*
X89000000Y-49500000D02*
X99225000Y-49500000D01*
X101080000Y-52080000D02*
X101080000Y-54000000D01*
X101080000Y-51355000D02*
X99225000Y-49500000D01*
X101080000Y-52080000D02*
X101080000Y-51355000D01*
X63000000Y-51275000D02*
X64775000Y-49500000D01*
X63000000Y-54000000D02*
X63000000Y-51275000D01*
D16*
X100050000Y-78350000D02*
X100050000Y-74950000D01*
X102500000Y-55420000D02*
X102290000Y-55210000D01*
X102500000Y-72500000D02*
X102500000Y-55420000D01*
X101080000Y-54000000D02*
X102290000Y-55210000D01*
X100050000Y-74950000D02*
X102500000Y-72500000D01*
D18*
X62540000Y-76400000D02*
X62570000Y-76430000D01*
X62540000Y-59540000D02*
X62540000Y-76400000D01*
X64490000Y-78350000D02*
X62570000Y-76430000D01*
X62540000Y-59540000D02*
X68080000Y-54000000D01*
G04 #@! TA.AperFunction,Conductor*
G36*
X82378311Y-51520502D02*
G01*
X82424804Y-51574158D01*
X82434908Y-51644432D01*
X82431309Y-51661230D01*
X82385234Y-51821913D01*
X82374500Y-51942184D01*
X82374500Y-53557816D01*
X82385234Y-53678087D01*
X82441259Y-53873470D01*
X82506111Y-53997519D01*
X82524280Y-54032273D01*
X82535427Y-54053596D01*
X82539458Y-54058539D01*
X82539459Y-54058540D01*
X82633019Y-54173256D01*
X82663891Y-54211109D01*
X82668831Y-54215138D01*
X82821404Y-54339573D01*
X82819587Y-54341801D01*
X82857326Y-54386861D01*
X82866227Y-54445045D01*
X82867553Y-54445117D01*
X82867000Y-54455328D01*
X82867000Y-54977885D01*
X82871475Y-54993124D01*
X82872865Y-54994329D01*
X82880548Y-54996000D01*
X85114884Y-54996000D01*
X85130123Y-54991525D01*
X85131328Y-54990135D01*
X85132999Y-54982452D01*
X85132999Y-54455331D01*
X85132446Y-54445123D01*
X85133942Y-54445042D01*
X85145396Y-54381033D01*
X85180307Y-54341671D01*
X85178596Y-54339573D01*
X85253042Y-54278857D01*
X85318474Y-54251303D01*
X85332677Y-54250500D01*
X86359268Y-54250500D01*
X86377021Y-54251757D01*
X86380588Y-54252265D01*
X86380593Y-54252265D01*
X86385706Y-54252993D01*
X86390868Y-54252876D01*
X86390871Y-54252876D01*
X86494150Y-54250532D01*
X86497009Y-54250500D01*
X86537554Y-54250500D01*
X86540109Y-54250290D01*
X86540133Y-54250289D01*
X86549839Y-54249491D01*
X86557298Y-54249099D01*
X86632382Y-54247395D01*
X86637454Y-54246437D01*
X86637460Y-54246436D01*
X86669847Y-54240316D01*
X86682916Y-54238549D01*
X86715759Y-54235849D01*
X86715764Y-54235848D01*
X86720911Y-54235425D01*
X86754273Y-54227045D01*
X86793746Y-54217131D01*
X86801045Y-54215526D01*
X86869753Y-54202543D01*
X86869754Y-54202543D01*
X86874833Y-54201583D01*
X86879684Y-54199808D01*
X86879687Y-54199807D01*
X86897414Y-54193320D01*
X86910637Y-54188481D01*
X86923236Y-54184605D01*
X86934657Y-54181736D01*
X86955206Y-54176575D01*
X86955210Y-54176574D01*
X86960217Y-54175316D01*
X86995267Y-54160076D01*
X87029087Y-54145371D01*
X87036027Y-54142595D01*
X87106545Y-54116789D01*
X87139723Y-54098017D01*
X87151528Y-54092131D01*
X87151998Y-54091927D01*
X87186493Y-54076928D01*
X87190828Y-54074124D01*
X87190831Y-54074122D01*
X87222559Y-54053596D01*
X87249545Y-54036138D01*
X87255927Y-54032273D01*
X87316795Y-53997836D01*
X87316803Y-53997831D01*
X87321297Y-53995288D01*
X87325319Y-53992043D01*
X87325326Y-53992038D01*
X87350977Y-53971341D01*
X87361651Y-53963614D01*
X87393661Y-53942905D01*
X87449203Y-53892365D01*
X87454871Y-53887508D01*
X87476326Y-53870197D01*
X87476334Y-53870190D01*
X87478945Y-53868083D01*
X87507703Y-53839325D01*
X87511999Y-53835226D01*
X87512895Y-53834411D01*
X87576158Y-53776846D01*
X87579357Y-53772795D01*
X87579361Y-53772791D01*
X87594037Y-53754207D01*
X87603824Y-53743204D01*
X87619143Y-53727885D01*
X93992000Y-53727885D01*
X93996475Y-53743124D01*
X93997865Y-53744329D01*
X94005548Y-53746000D01*
X95727885Y-53746000D01*
X95743124Y-53741525D01*
X95744329Y-53740135D01*
X95746000Y-53732452D01*
X95746000Y-53727885D01*
X96254000Y-53727885D01*
X96258475Y-53743124D01*
X96259865Y-53744329D01*
X96267548Y-53746000D01*
X97989884Y-53746000D01*
X98005123Y-53741525D01*
X98006328Y-53740135D01*
X98007999Y-53732452D01*
X98007999Y-52455331D01*
X98007629Y-52448510D01*
X98002105Y-52397648D01*
X97998479Y-52382396D01*
X97953324Y-52261946D01*
X97944786Y-52246351D01*
X97868285Y-52144276D01*
X97855724Y-52131715D01*
X97753649Y-52055214D01*
X97738054Y-52046676D01*
X97617606Y-52001522D01*
X97602351Y-51997895D01*
X97551486Y-51992369D01*
X97544672Y-51992000D01*
X96272115Y-51992000D01*
X96256876Y-51996475D01*
X96255671Y-51997865D01*
X96254000Y-52005548D01*
X96254000Y-53727885D01*
X95746000Y-53727885D01*
X95746000Y-52010116D01*
X95741525Y-51994877D01*
X95740135Y-51993672D01*
X95732452Y-51992001D01*
X94455331Y-51992001D01*
X94448510Y-51992371D01*
X94397648Y-51997895D01*
X94382396Y-52001521D01*
X94261946Y-52046676D01*
X94246351Y-52055214D01*
X94144276Y-52131715D01*
X94131715Y-52144276D01*
X94055214Y-52246351D01*
X94046676Y-52261946D01*
X94001522Y-52382394D01*
X93997895Y-52397649D01*
X93992369Y-52448514D01*
X93992000Y-52455328D01*
X93992000Y-53727885D01*
X87619143Y-53727885D01*
X88209623Y-53137405D01*
X88271935Y-53103379D01*
X88298718Y-53100500D01*
X90407816Y-53100500D01*
X90410603Y-53100251D01*
X90410609Y-53100251D01*
X90496455Y-53092589D01*
X90528087Y-53089766D01*
X90723470Y-53033741D01*
X90903596Y-52939573D01*
X91061109Y-52811109D01*
X91082878Y-52784417D01*
X91185541Y-52658540D01*
X91185542Y-52658539D01*
X91189573Y-52653596D01*
X91283741Y-52473470D01*
X91339766Y-52278087D01*
X91350500Y-52157816D01*
X91350500Y-51626500D01*
X91370502Y-51558379D01*
X91424158Y-51511886D01*
X91476500Y-51500500D01*
X98344174Y-51500500D01*
X98412295Y-51520502D01*
X98433269Y-51537404D01*
X99042595Y-52146729D01*
X99076620Y-52209042D01*
X99079500Y-52235825D01*
X99079500Y-52450419D01*
X99055450Y-52524439D01*
X99053053Y-52527337D01*
X98976515Y-52647942D01*
X98890790Y-52783024D01*
X98884463Y-52792993D01*
X98882779Y-52796572D01*
X98882775Y-52796579D01*
X98752186Y-53074095D01*
X98750497Y-53077685D01*
X98749271Y-53081457D01*
X98749271Y-53081458D01*
X98722245Y-53164636D01*
X98653269Y-53376921D01*
X98594312Y-53685985D01*
X98574556Y-54000000D01*
X98594312Y-54314015D01*
X98653269Y-54623079D01*
X98750497Y-54922315D01*
X98752184Y-54925901D01*
X98752186Y-54925905D01*
X98882775Y-55203421D01*
X98882779Y-55203428D01*
X98884463Y-55207007D01*
X99053053Y-55472663D01*
X99253610Y-55715094D01*
X99482970Y-55930478D01*
X99486172Y-55932805D01*
X99486174Y-55932806D01*
X99734307Y-56113085D01*
X99734312Y-56113088D01*
X99737516Y-56115416D01*
X99741496Y-56117604D01*
X99988960Y-56253649D01*
X100013234Y-56266994D01*
X100172637Y-56330106D01*
X100302092Y-56381361D01*
X100302095Y-56381362D01*
X100305775Y-56382819D01*
X100309609Y-56383803D01*
X100309617Y-56383806D01*
X100492582Y-56430783D01*
X100610527Y-56461066D01*
X100614455Y-56461562D01*
X100614459Y-56461563D01*
X100889292Y-56496282D01*
X100954369Y-56524664D01*
X100993770Y-56583723D01*
X100999500Y-56621288D01*
X100999500Y-59874000D01*
X100979498Y-59942121D01*
X100925842Y-59988614D01*
X100873500Y-60000000D01*
X90943156Y-60000000D01*
X90875035Y-59979998D01*
X90828542Y-59926342D01*
X90818438Y-59856068D01*
X90825174Y-59829771D01*
X90848478Y-59767609D01*
X90852105Y-59752351D01*
X90857631Y-59701486D01*
X90858000Y-59694672D01*
X90858000Y-58047115D01*
X90853525Y-58031876D01*
X90852135Y-58030671D01*
X90844452Y-58029000D01*
X87160116Y-58029000D01*
X87144877Y-58033475D01*
X87143672Y-58034865D01*
X87142001Y-58042548D01*
X87142001Y-59694669D01*
X87142371Y-59701490D01*
X87147895Y-59752352D01*
X87151522Y-59767606D01*
X87174826Y-59829771D01*
X87180009Y-59900578D01*
X87146088Y-59962947D01*
X87083833Y-59997076D01*
X87056844Y-60000000D01*
X69232664Y-60000000D01*
X69164543Y-59979998D01*
X69118050Y-59926342D01*
X69107946Y-59856068D01*
X69137440Y-59791488D01*
X69143569Y-59784905D01*
X71425589Y-57502885D01*
X87142000Y-57502885D01*
X87146475Y-57518124D01*
X87147865Y-57519329D01*
X87155548Y-57521000D01*
X88727885Y-57521000D01*
X88743124Y-57516525D01*
X88744329Y-57515135D01*
X88746000Y-57507452D01*
X88746000Y-57502885D01*
X89254000Y-57502885D01*
X89258475Y-57518124D01*
X89259865Y-57519329D01*
X89267548Y-57521000D01*
X90839884Y-57521000D01*
X90855123Y-57516525D01*
X90856328Y-57515135D01*
X90857999Y-57507452D01*
X90857999Y-55855331D01*
X90857629Y-55848510D01*
X90852105Y-55797648D01*
X90848479Y-55782396D01*
X90803324Y-55661946D01*
X90794786Y-55646351D01*
X90718580Y-55544669D01*
X93992001Y-55544669D01*
X93992371Y-55551490D01*
X93997895Y-55602352D01*
X94001521Y-55617604D01*
X94046676Y-55738054D01*
X94055214Y-55753649D01*
X94131715Y-55855724D01*
X94144276Y-55868285D01*
X94246351Y-55944786D01*
X94261946Y-55953324D01*
X94382394Y-55998478D01*
X94397649Y-56002105D01*
X94448514Y-56007631D01*
X94455328Y-56008000D01*
X95727885Y-56008000D01*
X95743124Y-56003525D01*
X95744329Y-56002135D01*
X95746000Y-55994452D01*
X95746000Y-55989884D01*
X96254000Y-55989884D01*
X96258475Y-56005123D01*
X96259865Y-56006328D01*
X96267548Y-56007999D01*
X97544669Y-56007999D01*
X97551490Y-56007629D01*
X97602352Y-56002105D01*
X97617604Y-55998479D01*
X97738054Y-55953324D01*
X97753649Y-55944786D01*
X97855724Y-55868285D01*
X97868285Y-55855724D01*
X97944786Y-55753649D01*
X97953324Y-55738054D01*
X97998478Y-55617606D01*
X98002105Y-55602351D01*
X98007631Y-55551486D01*
X98008000Y-55544672D01*
X98008000Y-54272115D01*
X98003525Y-54256876D01*
X98002135Y-54255671D01*
X97994452Y-54254000D01*
X96272115Y-54254000D01*
X96256876Y-54258475D01*
X96255671Y-54259865D01*
X96254000Y-54267548D01*
X96254000Y-55989884D01*
X95746000Y-55989884D01*
X95746000Y-54272115D01*
X95741525Y-54256876D01*
X95740135Y-54255671D01*
X95732452Y-54254000D01*
X94010116Y-54254000D01*
X93994877Y-54258475D01*
X93993672Y-54259865D01*
X93992001Y-54267548D01*
X93992001Y-55544669D01*
X90718580Y-55544669D01*
X90718285Y-55544276D01*
X90705724Y-55531715D01*
X90603649Y-55455214D01*
X90588054Y-55446676D01*
X90467606Y-55401522D01*
X90452351Y-55397895D01*
X90401486Y-55392369D01*
X90394672Y-55392000D01*
X89272115Y-55392000D01*
X89256876Y-55396475D01*
X89255671Y-55397865D01*
X89254000Y-55405548D01*
X89254000Y-57502885D01*
X88746000Y-57502885D01*
X88746000Y-55410116D01*
X88741525Y-55394877D01*
X88740135Y-55393672D01*
X88732452Y-55392001D01*
X87605331Y-55392001D01*
X87598510Y-55392371D01*
X87547648Y-55397895D01*
X87532396Y-55401521D01*
X87411946Y-55446676D01*
X87396351Y-55455214D01*
X87294276Y-55531715D01*
X87281715Y-55544276D01*
X87205214Y-55646351D01*
X87196676Y-55661946D01*
X87151522Y-55782394D01*
X87147895Y-55797649D01*
X87142369Y-55848514D01*
X87142000Y-55855328D01*
X87142000Y-57502885D01*
X71425589Y-57502885D01*
X72462171Y-56466303D01*
X72524483Y-56432277D01*
X72582600Y-56433356D01*
X72686688Y-56460081D01*
X72686698Y-56460083D01*
X72690527Y-56461066D01*
X73002682Y-56500500D01*
X73317318Y-56500500D01*
X73501625Y-56477217D01*
X73625541Y-56461563D01*
X73625545Y-56461562D01*
X73629473Y-56461066D01*
X73747418Y-56430783D01*
X73930383Y-56383806D01*
X73930391Y-56383803D01*
X73934225Y-56382819D01*
X73937905Y-56381362D01*
X73937908Y-56381361D01*
X74067363Y-56330106D01*
X74226766Y-56266994D01*
X74251041Y-56253649D01*
X74498504Y-56117604D01*
X74502484Y-56115416D01*
X74505688Y-56113088D01*
X74505693Y-56113085D01*
X74599860Y-56044669D01*
X82867001Y-56044669D01*
X82867371Y-56051490D01*
X82872895Y-56102352D01*
X82876521Y-56117604D01*
X82921676Y-56238054D01*
X82930214Y-56253649D01*
X83006715Y-56355724D01*
X83019276Y-56368285D01*
X83121351Y-56444786D01*
X83136946Y-56453324D01*
X83257394Y-56498478D01*
X83272649Y-56502105D01*
X83323514Y-56507631D01*
X83330328Y-56508000D01*
X83727885Y-56508000D01*
X83743124Y-56503525D01*
X83744329Y-56502135D01*
X83746000Y-56494452D01*
X83746000Y-56489884D01*
X84254000Y-56489884D01*
X84258475Y-56505123D01*
X84259865Y-56506328D01*
X84267548Y-56507999D01*
X84669669Y-56507999D01*
X84676490Y-56507629D01*
X84727352Y-56502105D01*
X84742604Y-56498479D01*
X84863054Y-56453324D01*
X84878649Y-56444786D01*
X84980724Y-56368285D01*
X84993285Y-56355724D01*
X85069786Y-56253649D01*
X85078324Y-56238054D01*
X85123478Y-56117606D01*
X85127105Y-56102351D01*
X85132631Y-56051486D01*
X85133000Y-56044672D01*
X85133000Y-55522115D01*
X85128525Y-55506876D01*
X85127135Y-55505671D01*
X85119452Y-55504000D01*
X84272115Y-55504000D01*
X84256876Y-55508475D01*
X84255671Y-55509865D01*
X84254000Y-55517548D01*
X84254000Y-56489884D01*
X83746000Y-56489884D01*
X83746000Y-55522115D01*
X83741525Y-55506876D01*
X83740135Y-55505671D01*
X83732452Y-55504000D01*
X82885116Y-55504000D01*
X82869877Y-55508475D01*
X82868672Y-55509865D01*
X82867001Y-55517548D01*
X82867001Y-56044669D01*
X74599860Y-56044669D01*
X74753826Y-55932806D01*
X74753828Y-55932805D01*
X74757030Y-55930478D01*
X74986390Y-55715094D01*
X75090163Y-55589654D01*
X77015618Y-55589654D01*
X77022673Y-55599627D01*
X77053679Y-55625551D01*
X77060598Y-55630579D01*
X77285272Y-55771515D01*
X77292807Y-55775556D01*
X77534520Y-55884694D01*
X77542551Y-55887680D01*
X77796832Y-55963002D01*
X77805184Y-55964869D01*
X78067340Y-56004984D01*
X78075874Y-56005700D01*
X78341045Y-56009867D01*
X78349596Y-56009418D01*
X78612883Y-55977557D01*
X78621284Y-55975955D01*
X78877824Y-55908653D01*
X78885926Y-55905926D01*
X79130949Y-55804434D01*
X79138617Y-55800628D01*
X79367598Y-55666822D01*
X79374679Y-55662009D01*
X79454655Y-55599301D01*
X79463125Y-55587442D01*
X79456608Y-55575818D01*
X78252812Y-54372022D01*
X78238868Y-54364408D01*
X78237035Y-54364539D01*
X78230420Y-54368790D01*
X77022910Y-55576300D01*
X77015618Y-55589654D01*
X75090163Y-55589654D01*
X75186947Y-55472663D01*
X75355537Y-55207007D01*
X75357221Y-55203428D01*
X75357225Y-55203421D01*
X75487814Y-54925905D01*
X75487816Y-54925901D01*
X75489503Y-54922315D01*
X75586731Y-54623079D01*
X75645688Y-54314015D01*
X75665444Y-54000000D01*
X75664387Y-53983204D01*
X76227665Y-53983204D01*
X76242932Y-54247969D01*
X76244005Y-54256470D01*
X76295065Y-54516722D01*
X76297276Y-54524974D01*
X76383184Y-54775894D01*
X76386499Y-54783779D01*
X76505664Y-55020713D01*
X76510020Y-55028079D01*
X76639347Y-55216250D01*
X76649601Y-55224594D01*
X76663342Y-55217448D01*
X77867978Y-54012812D01*
X77874356Y-54001132D01*
X78604408Y-54001132D01*
X78604539Y-54002965D01*
X78608790Y-54009580D01*
X79815730Y-55216520D01*
X79827939Y-55223187D01*
X79839439Y-55214497D01*
X79936831Y-55081913D01*
X79941418Y-55074685D01*
X80067962Y-54841621D01*
X80071530Y-54833827D01*
X80165271Y-54585750D01*
X80167748Y-54577544D01*
X80226954Y-54319038D01*
X80228294Y-54310577D01*
X80252031Y-54044616D01*
X80252277Y-54039677D01*
X80252666Y-54002485D01*
X80252523Y-53997519D01*
X80234362Y-53731123D01*
X80233201Y-53722649D01*
X80179419Y-53462944D01*
X80177120Y-53454709D01*
X80088588Y-53204705D01*
X80085191Y-53196854D01*
X79963550Y-52961178D01*
X79959122Y-52953866D01*
X79840031Y-52784417D01*
X79829509Y-52776037D01*
X79816121Y-52783089D01*
X78612022Y-53987188D01*
X78604408Y-54001132D01*
X77874356Y-54001132D01*
X77875592Y-53998868D01*
X77875461Y-53997035D01*
X77871210Y-53990420D01*
X76663814Y-52783024D01*
X76651804Y-52776466D01*
X76640064Y-52785434D01*
X76531935Y-52935911D01*
X76527418Y-52943196D01*
X76403325Y-53177567D01*
X76399839Y-53185395D01*
X76308700Y-53434446D01*
X76306311Y-53442670D01*
X76249812Y-53701795D01*
X76248563Y-53710250D01*
X76227754Y-53974653D01*
X76227665Y-53983204D01*
X75664387Y-53983204D01*
X75645688Y-53685985D01*
X75586731Y-53376921D01*
X75517755Y-53164636D01*
X75490729Y-53081458D01*
X75490729Y-53081457D01*
X75489503Y-53077685D01*
X75487814Y-53074095D01*
X75357225Y-52796579D01*
X75357221Y-52796572D01*
X75355537Y-52792993D01*
X75349211Y-52783024D01*
X75337345Y-52764327D01*
X75186947Y-52527337D01*
X75091945Y-52412500D01*
X77016584Y-52412500D01*
X77022980Y-52423770D01*
X78227188Y-53627978D01*
X78241132Y-53635592D01*
X78242965Y-53635461D01*
X78249580Y-53631210D01*
X79456604Y-52424186D01*
X79463795Y-52411017D01*
X79456473Y-52400780D01*
X79409233Y-52362115D01*
X79402261Y-52357160D01*
X79176122Y-52218582D01*
X79168552Y-52214624D01*
X78925704Y-52108022D01*
X78917644Y-52105120D01*
X78662592Y-52032467D01*
X78654214Y-52030685D01*
X78391656Y-51993318D01*
X78383111Y-51992691D01*
X78117908Y-51991302D01*
X78109374Y-51991839D01*
X77846433Y-52026456D01*
X77838035Y-52028149D01*
X77582238Y-52098127D01*
X77574143Y-52100946D01*
X77330199Y-52204997D01*
X77322577Y-52208881D01*
X77095013Y-52345075D01*
X77087981Y-52349962D01*
X77025053Y-52400377D01*
X77016584Y-52412500D01*
X75091945Y-52412500D01*
X74986390Y-52284906D01*
X74757030Y-52069522D01*
X74706028Y-52032467D01*
X74505693Y-51886915D01*
X74505688Y-51886912D01*
X74502484Y-51884584D01*
X74233876Y-51736915D01*
X74183817Y-51686569D01*
X74168924Y-51617152D01*
X74193925Y-51550703D01*
X74250882Y-51508319D01*
X74294577Y-51500500D01*
X82310190Y-51500500D01*
X82378311Y-51520502D01*
G37*
G04 #@! TD.AperFunction*
M02*
