G04 #@! TF.GenerationSoftware,KiCad,Pcbnew,(6.0.0)*
G04 #@! TF.CreationDate,2022-01-15T23:36:52+01:00*
G04 #@! TF.ProjectId,apa102nano,61706131-3032-46e6-916e-6f2e6b696361,rev?*
G04 #@! TF.SameCoordinates,Original*
G04 #@! TF.FileFunction,Copper,L2,Bot*
G04 #@! TF.FilePolarity,Positive*
%FSLAX46Y46*%
G04 Gerber Fmt 4.6, Leading zero omitted, Abs format (unit mm)*
G04 Created by KiCad (PCBNEW (6.0.0)) date 2022-01-15 23:36:52*
%MOMM*%
%LPD*%
G01*
G04 APERTURE LIST*
G04 #@! TA.AperFunction,Profile*
%ADD10C,0.050000*%
G04 #@! TD*
G04 #@! TA.AperFunction,ComponentPad*
%ADD11C,3.000000*%
G04 #@! TD*
G04 #@! TA.AperFunction,ComponentPad*
%ADD12R,3.000000X3.000000*%
G04 #@! TD*
G04 #@! TA.AperFunction,ComponentPad*
%ADD13C,1.524000*%
G04 #@! TD*
G04 APERTURE END LIST*
D10*
X103000000Y-46000000D02*
X61000000Y-46000000D01*
X105000000Y-48000000D02*
G75*
G03*
X103000000Y-46000000I-2000000J0D01*
G01*
X103000000Y-81000000D02*
G75*
G03*
X105000000Y-79000000I0J2000000D01*
G01*
X59000000Y-79000000D02*
G75*
G03*
X61000000Y-81000000I2000000J0D01*
G01*
X61000000Y-46000000D02*
G75*
G03*
X59000000Y-48000000I0J-2000000D01*
G01*
X105000000Y-79000000D02*
X105000000Y-48000000D01*
X61000000Y-81000000D02*
X103000000Y-81000000D01*
X59000000Y-48000000D02*
X59000000Y-79000000D01*
D11*
X78240000Y-54000000D03*
D12*
X63000000Y-54000000D03*
D11*
X73160000Y-54000000D03*
X68080000Y-54000000D03*
X101080000Y-54000000D03*
D12*
X96000000Y-54000000D03*
D13*
X64490000Y-78350000D03*
X67030000Y-78350000D03*
X69570000Y-78350000D03*
X72110000Y-78350000D03*
X74650000Y-78350000D03*
X77190000Y-78350000D03*
X79730000Y-78350000D03*
X82270000Y-78350000D03*
X84810000Y-78350000D03*
X87350000Y-78350000D03*
X89890000Y-78350000D03*
X92430000Y-78350000D03*
X94970000Y-78350000D03*
X97510000Y-78350000D03*
X100050000Y-78350000D03*
X64490000Y-63110000D03*
X67030000Y-63110000D03*
X69570000Y-63110000D03*
X72110000Y-63110000D03*
X74650000Y-63110000D03*
X77190000Y-63110000D03*
X79730000Y-63110000D03*
X82270000Y-63110000D03*
X84810000Y-63110000D03*
X87350000Y-63110000D03*
X89890000Y-63110000D03*
X92430000Y-63110000D03*
X94970000Y-63110000D03*
X97510000Y-63110000D03*
X100050000Y-63110000D03*
G04 #@! TA.AperFunction,Conductor*
G36*
X102950701Y-47000785D02*
G01*
X102985971Y-47004741D01*
X103010015Y-47002722D01*
X103031537Y-47002759D01*
X103162671Y-47014232D01*
X103184294Y-47018044D01*
X103297557Y-47048393D01*
X103331373Y-47057454D01*
X103352012Y-47064966D01*
X103490010Y-47129316D01*
X103509030Y-47140298D01*
X103633761Y-47227635D01*
X103650586Y-47241753D01*
X103758247Y-47349414D01*
X103772365Y-47366239D01*
X103859702Y-47490970D01*
X103870684Y-47509990D01*
X103935034Y-47647988D01*
X103942546Y-47668627D01*
X103981955Y-47815702D01*
X103985769Y-47837332D01*
X103996137Y-47955843D01*
X103995919Y-47973678D01*
X103996032Y-47973680D01*
X103995946Y-47979844D01*
X103995259Y-47985969D01*
X103995775Y-47992113D01*
X103999558Y-48037165D01*
X104000000Y-48047708D01*
X104000000Y-59874000D01*
X103979998Y-59942121D01*
X103926342Y-59988614D01*
X103874000Y-60000000D01*
X60126000Y-60000000D01*
X60057879Y-59979998D01*
X60011386Y-59926342D01*
X60000000Y-59874000D01*
X60000000Y-55544669D01*
X60992001Y-55544669D01*
X60992371Y-55551490D01*
X60997895Y-55602352D01*
X61001521Y-55617604D01*
X61046676Y-55738054D01*
X61055214Y-55753649D01*
X61131715Y-55855724D01*
X61144276Y-55868285D01*
X61246351Y-55944786D01*
X61261946Y-55953324D01*
X61382394Y-55998478D01*
X61397649Y-56002105D01*
X61448514Y-56007631D01*
X61455328Y-56008000D01*
X62727885Y-56008000D01*
X62743124Y-56003525D01*
X62744329Y-56002135D01*
X62746000Y-55994452D01*
X62746000Y-55989884D01*
X63254000Y-55989884D01*
X63258475Y-56005123D01*
X63259865Y-56006328D01*
X63267548Y-56007999D01*
X64544669Y-56007999D01*
X64551490Y-56007629D01*
X64602352Y-56002105D01*
X64617604Y-55998479D01*
X64738054Y-55953324D01*
X64753649Y-55944786D01*
X64855724Y-55868285D01*
X64868285Y-55855724D01*
X64944786Y-55753649D01*
X64953324Y-55738054D01*
X64998478Y-55617606D01*
X65002105Y-55602351D01*
X65007631Y-55551486D01*
X65008000Y-55544672D01*
X65008000Y-54272115D01*
X65003525Y-54256876D01*
X65002135Y-54255671D01*
X64994452Y-54254000D01*
X63272115Y-54254000D01*
X63256876Y-54258475D01*
X63255671Y-54259865D01*
X63254000Y-54267548D01*
X63254000Y-55989884D01*
X62746000Y-55989884D01*
X62746000Y-54272115D01*
X62741525Y-54256876D01*
X62740135Y-54255671D01*
X62732452Y-54254000D01*
X61010116Y-54254000D01*
X60994877Y-54258475D01*
X60993672Y-54259865D01*
X60992001Y-54267548D01*
X60992001Y-55544669D01*
X60000000Y-55544669D01*
X60000000Y-54000000D01*
X65574556Y-54000000D01*
X65594312Y-54314015D01*
X65653269Y-54623079D01*
X65750497Y-54922315D01*
X65752184Y-54925901D01*
X65752186Y-54925905D01*
X65882775Y-55203421D01*
X65882779Y-55203428D01*
X65884463Y-55207007D01*
X66053053Y-55472663D01*
X66253610Y-55715094D01*
X66482970Y-55930478D01*
X66486172Y-55932805D01*
X66486174Y-55932806D01*
X66734307Y-56113085D01*
X66734312Y-56113088D01*
X66737516Y-56115416D01*
X67013234Y-56266994D01*
X67172637Y-56330106D01*
X67302092Y-56381361D01*
X67302095Y-56381362D01*
X67305775Y-56382819D01*
X67309609Y-56383803D01*
X67309617Y-56383806D01*
X67492582Y-56430783D01*
X67610527Y-56461066D01*
X67614455Y-56461562D01*
X67614459Y-56461563D01*
X67738375Y-56477217D01*
X67922682Y-56500500D01*
X68237318Y-56500500D01*
X68421625Y-56477217D01*
X68545541Y-56461563D01*
X68545545Y-56461562D01*
X68549473Y-56461066D01*
X68667418Y-56430783D01*
X68850383Y-56383806D01*
X68850391Y-56383803D01*
X68854225Y-56382819D01*
X68857905Y-56381362D01*
X68857908Y-56381361D01*
X68987363Y-56330106D01*
X69146766Y-56266994D01*
X69422484Y-56115416D01*
X69425688Y-56113088D01*
X69425693Y-56113085D01*
X69673826Y-55932806D01*
X69673828Y-55932805D01*
X69677030Y-55930478D01*
X69906390Y-55715094D01*
X70106947Y-55472663D01*
X70275537Y-55207007D01*
X70277221Y-55203428D01*
X70277225Y-55203421D01*
X70407814Y-54925905D01*
X70407816Y-54925901D01*
X70409503Y-54922315D01*
X70500167Y-54643281D01*
X70540241Y-54584675D01*
X70605637Y-54557038D01*
X70675594Y-54569145D01*
X70727900Y-54617151D01*
X70739833Y-54643281D01*
X70830497Y-54922315D01*
X70832184Y-54925901D01*
X70832186Y-54925905D01*
X70962775Y-55203421D01*
X70962779Y-55203428D01*
X70964463Y-55207007D01*
X71133053Y-55472663D01*
X71333610Y-55715094D01*
X71562970Y-55930478D01*
X71566172Y-55932805D01*
X71566174Y-55932806D01*
X71814307Y-56113085D01*
X71814312Y-56113088D01*
X71817516Y-56115416D01*
X72093234Y-56266994D01*
X72252637Y-56330106D01*
X72382092Y-56381361D01*
X72382095Y-56381362D01*
X72385775Y-56382819D01*
X72389609Y-56383803D01*
X72389617Y-56383806D01*
X72572582Y-56430783D01*
X72690527Y-56461066D01*
X72694455Y-56461562D01*
X72694459Y-56461563D01*
X72818375Y-56477217D01*
X73002682Y-56500500D01*
X73317318Y-56500500D01*
X73501625Y-56477217D01*
X73625541Y-56461563D01*
X73625545Y-56461562D01*
X73629473Y-56461066D01*
X73747418Y-56430783D01*
X73930383Y-56383806D01*
X73930391Y-56383803D01*
X73934225Y-56382819D01*
X73937905Y-56381362D01*
X73937908Y-56381361D01*
X74067363Y-56330106D01*
X74226766Y-56266994D01*
X74502484Y-56115416D01*
X74505688Y-56113088D01*
X74505693Y-56113085D01*
X74753826Y-55932806D01*
X74753828Y-55932805D01*
X74757030Y-55930478D01*
X74986390Y-55715094D01*
X75186947Y-55472663D01*
X75355537Y-55207007D01*
X75357221Y-55203428D01*
X75357225Y-55203421D01*
X75487814Y-54925905D01*
X75487816Y-54925901D01*
X75489503Y-54922315D01*
X75580167Y-54643281D01*
X75620241Y-54584675D01*
X75685637Y-54557038D01*
X75755594Y-54569145D01*
X75807900Y-54617151D01*
X75819833Y-54643281D01*
X75910497Y-54922315D01*
X75912184Y-54925901D01*
X75912186Y-54925905D01*
X76042775Y-55203421D01*
X76042779Y-55203428D01*
X76044463Y-55207007D01*
X76213053Y-55472663D01*
X76413610Y-55715094D01*
X76642970Y-55930478D01*
X76646172Y-55932805D01*
X76646174Y-55932806D01*
X76894307Y-56113085D01*
X76894312Y-56113088D01*
X76897516Y-56115416D01*
X77173234Y-56266994D01*
X77332637Y-56330106D01*
X77462092Y-56381361D01*
X77462095Y-56381362D01*
X77465775Y-56382819D01*
X77469609Y-56383803D01*
X77469617Y-56383806D01*
X77652582Y-56430783D01*
X77770527Y-56461066D01*
X77774455Y-56461562D01*
X77774459Y-56461563D01*
X77898375Y-56477217D01*
X78082682Y-56500500D01*
X78397318Y-56500500D01*
X78581625Y-56477217D01*
X78705541Y-56461563D01*
X78705545Y-56461562D01*
X78709473Y-56461066D01*
X78827418Y-56430783D01*
X79010383Y-56383806D01*
X79010391Y-56383803D01*
X79014225Y-56382819D01*
X79017905Y-56381362D01*
X79017908Y-56381361D01*
X79147363Y-56330106D01*
X79306766Y-56266994D01*
X79582484Y-56115416D01*
X79585688Y-56113088D01*
X79585693Y-56113085D01*
X79833826Y-55932806D01*
X79833828Y-55932805D01*
X79837030Y-55930478D01*
X80066390Y-55715094D01*
X80196502Y-55557816D01*
X93499500Y-55557816D01*
X93499749Y-55560603D01*
X93499749Y-55560609D01*
X93503475Y-55602351D01*
X93510234Y-55678087D01*
X93566259Y-55873470D01*
X93660427Y-56053596D01*
X93788891Y-56211109D01*
X93946404Y-56339573D01*
X94126530Y-56433741D01*
X94321913Y-56489766D01*
X94353545Y-56492589D01*
X94439391Y-56500251D01*
X94439397Y-56500251D01*
X94442184Y-56500500D01*
X97557816Y-56500500D01*
X97560603Y-56500251D01*
X97560609Y-56500251D01*
X97646455Y-56492589D01*
X97678087Y-56489766D01*
X97873470Y-56433741D01*
X98053596Y-56339573D01*
X98211109Y-56211109D01*
X98339573Y-56053596D01*
X98433741Y-55873470D01*
X98489766Y-55678087D01*
X98496525Y-55602351D01*
X98497658Y-55589654D01*
X99855618Y-55589654D01*
X99862673Y-55599627D01*
X99893679Y-55625551D01*
X99900598Y-55630579D01*
X100125272Y-55771515D01*
X100132807Y-55775556D01*
X100374520Y-55884694D01*
X100382551Y-55887680D01*
X100636832Y-55963002D01*
X100645184Y-55964869D01*
X100907340Y-56004984D01*
X100915874Y-56005700D01*
X101181045Y-56009867D01*
X101189596Y-56009418D01*
X101452883Y-55977557D01*
X101461284Y-55975955D01*
X101717824Y-55908653D01*
X101725926Y-55905926D01*
X101970949Y-55804434D01*
X101978617Y-55800628D01*
X102207598Y-55666822D01*
X102214679Y-55662009D01*
X102294655Y-55599301D01*
X102303125Y-55587442D01*
X102296608Y-55575818D01*
X101092812Y-54372022D01*
X101078868Y-54364408D01*
X101077035Y-54364539D01*
X101070420Y-54368790D01*
X99862910Y-55576300D01*
X99855618Y-55589654D01*
X98497658Y-55589654D01*
X98500251Y-55560609D01*
X98500251Y-55560603D01*
X98500500Y-55557816D01*
X98500500Y-53983204D01*
X99067665Y-53983204D01*
X99082932Y-54247969D01*
X99084005Y-54256470D01*
X99135065Y-54516722D01*
X99137276Y-54524974D01*
X99223184Y-54775894D01*
X99226499Y-54783779D01*
X99345664Y-55020713D01*
X99350020Y-55028079D01*
X99479347Y-55216250D01*
X99489601Y-55224594D01*
X99503342Y-55217448D01*
X100707978Y-54012812D01*
X100714356Y-54001132D01*
X101444408Y-54001132D01*
X101444539Y-54002965D01*
X101448790Y-54009580D01*
X102655730Y-55216520D01*
X102667939Y-55223187D01*
X102679439Y-55214497D01*
X102776831Y-55081913D01*
X102781418Y-55074685D01*
X102907962Y-54841621D01*
X102911530Y-54833827D01*
X103005271Y-54585750D01*
X103007748Y-54577544D01*
X103066954Y-54319038D01*
X103068294Y-54310577D01*
X103092031Y-54044616D01*
X103092277Y-54039677D01*
X103092666Y-54002485D01*
X103092523Y-53997519D01*
X103074362Y-53731123D01*
X103073201Y-53722649D01*
X103019419Y-53462944D01*
X103017120Y-53454709D01*
X102928588Y-53204705D01*
X102925191Y-53196854D01*
X102803550Y-52961178D01*
X102799122Y-52953866D01*
X102680031Y-52784417D01*
X102669509Y-52776037D01*
X102656121Y-52783089D01*
X101452022Y-53987188D01*
X101444408Y-54001132D01*
X100714356Y-54001132D01*
X100715592Y-53998868D01*
X100715461Y-53997035D01*
X100711210Y-53990420D01*
X99503814Y-52783024D01*
X99491804Y-52776466D01*
X99480064Y-52785434D01*
X99371935Y-52935911D01*
X99367418Y-52943196D01*
X99243325Y-53177567D01*
X99239839Y-53185395D01*
X99148700Y-53434446D01*
X99146311Y-53442670D01*
X99089812Y-53701795D01*
X99088563Y-53710250D01*
X99067754Y-53974653D01*
X99067665Y-53983204D01*
X98500500Y-53983204D01*
X98500500Y-52442184D01*
X98497851Y-52412500D01*
X99856584Y-52412500D01*
X99862980Y-52423770D01*
X101067188Y-53627978D01*
X101081132Y-53635592D01*
X101082965Y-53635461D01*
X101089580Y-53631210D01*
X102296604Y-52424186D01*
X102303795Y-52411017D01*
X102296473Y-52400780D01*
X102249233Y-52362115D01*
X102242261Y-52357160D01*
X102016122Y-52218582D01*
X102008552Y-52214624D01*
X101765704Y-52108022D01*
X101757644Y-52105120D01*
X101502592Y-52032467D01*
X101494214Y-52030685D01*
X101231656Y-51993318D01*
X101223111Y-51992691D01*
X100957908Y-51991302D01*
X100949374Y-51991839D01*
X100686433Y-52026456D01*
X100678035Y-52028149D01*
X100422238Y-52098127D01*
X100414143Y-52100946D01*
X100170199Y-52204997D01*
X100162577Y-52208881D01*
X99935013Y-52345075D01*
X99927981Y-52349962D01*
X99865053Y-52400377D01*
X99856584Y-52412500D01*
X98497851Y-52412500D01*
X98497719Y-52411017D01*
X98490299Y-52327886D01*
X98489766Y-52321913D01*
X98433741Y-52126530D01*
X98339573Y-51946404D01*
X98211109Y-51788891D01*
X98053596Y-51660427D01*
X97873470Y-51566259D01*
X97678087Y-51510234D01*
X97646455Y-51507411D01*
X97560609Y-51499749D01*
X97560603Y-51499749D01*
X97557816Y-51499500D01*
X94442184Y-51499500D01*
X94439397Y-51499749D01*
X94439391Y-51499749D01*
X94353545Y-51507411D01*
X94321913Y-51510234D01*
X94126530Y-51566259D01*
X93946404Y-51660427D01*
X93788891Y-51788891D01*
X93660427Y-51946404D01*
X93566259Y-52126530D01*
X93510234Y-52321913D01*
X93509701Y-52327886D01*
X93502282Y-52411017D01*
X93499500Y-52442184D01*
X93499500Y-55557816D01*
X80196502Y-55557816D01*
X80266947Y-55472663D01*
X80435537Y-55207007D01*
X80437221Y-55203428D01*
X80437225Y-55203421D01*
X80567814Y-54925905D01*
X80567816Y-54925901D01*
X80569503Y-54922315D01*
X80666731Y-54623079D01*
X80725688Y-54314015D01*
X80745444Y-54000000D01*
X80725688Y-53685985D01*
X80666731Y-53376921D01*
X80569503Y-53077685D01*
X80514679Y-52961178D01*
X80437225Y-52796579D01*
X80437221Y-52796572D01*
X80435537Y-52792993D01*
X80429211Y-52783024D01*
X80417345Y-52764327D01*
X80266947Y-52527337D01*
X80066390Y-52284906D01*
X79837030Y-52069522D01*
X79786028Y-52032467D01*
X79585693Y-51886915D01*
X79585688Y-51886912D01*
X79582484Y-51884584D01*
X79306766Y-51733006D01*
X79115986Y-51657471D01*
X79017908Y-51618639D01*
X79017905Y-51618638D01*
X79014225Y-51617181D01*
X79010391Y-51616197D01*
X79010383Y-51616194D01*
X78809042Y-51564499D01*
X78709473Y-51538934D01*
X78705545Y-51538438D01*
X78705541Y-51538437D01*
X78581625Y-51522783D01*
X78397318Y-51499500D01*
X78082682Y-51499500D01*
X77898375Y-51522783D01*
X77774459Y-51538437D01*
X77774455Y-51538438D01*
X77770527Y-51538934D01*
X77670958Y-51564499D01*
X77469617Y-51616194D01*
X77469609Y-51616197D01*
X77465775Y-51617181D01*
X77462095Y-51618638D01*
X77462092Y-51618639D01*
X77364014Y-51657471D01*
X77173234Y-51733006D01*
X76897516Y-51884584D01*
X76894312Y-51886912D01*
X76894307Y-51886915D01*
X76693972Y-52032467D01*
X76642970Y-52069522D01*
X76413610Y-52284906D01*
X76213053Y-52527337D01*
X76062655Y-52764327D01*
X76050790Y-52783024D01*
X76044463Y-52792993D01*
X76042779Y-52796572D01*
X76042775Y-52796579D01*
X75965321Y-52961178D01*
X75910497Y-53077685D01*
X75909271Y-53081457D01*
X75909271Y-53081458D01*
X75819833Y-53356719D01*
X75779759Y-53415325D01*
X75714363Y-53442962D01*
X75644406Y-53430855D01*
X75592100Y-53382849D01*
X75580167Y-53356719D01*
X75490729Y-53081458D01*
X75490729Y-53081457D01*
X75489503Y-53077685D01*
X75434679Y-52961178D01*
X75357225Y-52796579D01*
X75357221Y-52796572D01*
X75355537Y-52792993D01*
X75349211Y-52783024D01*
X75337345Y-52764327D01*
X75186947Y-52527337D01*
X74986390Y-52284906D01*
X74757030Y-52069522D01*
X74706028Y-52032467D01*
X74505693Y-51886915D01*
X74505688Y-51886912D01*
X74502484Y-51884584D01*
X74226766Y-51733006D01*
X74035986Y-51657471D01*
X73937908Y-51618639D01*
X73937905Y-51618638D01*
X73934225Y-51617181D01*
X73930391Y-51616197D01*
X73930383Y-51616194D01*
X73729042Y-51564499D01*
X73629473Y-51538934D01*
X73625545Y-51538438D01*
X73625541Y-51538437D01*
X73501625Y-51522783D01*
X73317318Y-51499500D01*
X73002682Y-51499500D01*
X72818375Y-51522783D01*
X72694459Y-51538437D01*
X72694455Y-51538438D01*
X72690527Y-51538934D01*
X72590958Y-51564499D01*
X72389617Y-51616194D01*
X72389609Y-51616197D01*
X72385775Y-51617181D01*
X72382095Y-51618638D01*
X72382092Y-51618639D01*
X72284014Y-51657471D01*
X72093234Y-51733006D01*
X71817516Y-51884584D01*
X71814312Y-51886912D01*
X71814307Y-51886915D01*
X71613972Y-52032467D01*
X71562970Y-52069522D01*
X71333610Y-52284906D01*
X71133053Y-52527337D01*
X70982655Y-52764327D01*
X70970790Y-52783024D01*
X70964463Y-52792993D01*
X70962779Y-52796572D01*
X70962775Y-52796579D01*
X70885321Y-52961178D01*
X70830497Y-53077685D01*
X70829271Y-53081457D01*
X70829271Y-53081458D01*
X70739833Y-53356719D01*
X70699759Y-53415325D01*
X70634363Y-53442962D01*
X70564406Y-53430855D01*
X70512100Y-53382849D01*
X70500167Y-53356719D01*
X70410729Y-53081458D01*
X70410729Y-53081457D01*
X70409503Y-53077685D01*
X70354679Y-52961178D01*
X70277225Y-52796579D01*
X70277221Y-52796572D01*
X70275537Y-52792993D01*
X70269211Y-52783024D01*
X70257345Y-52764327D01*
X70106947Y-52527337D01*
X69906390Y-52284906D01*
X69677030Y-52069522D01*
X69626028Y-52032467D01*
X69425693Y-51886915D01*
X69425688Y-51886912D01*
X69422484Y-51884584D01*
X69146766Y-51733006D01*
X68955986Y-51657471D01*
X68857908Y-51618639D01*
X68857905Y-51618638D01*
X68854225Y-51617181D01*
X68850391Y-51616197D01*
X68850383Y-51616194D01*
X68649042Y-51564499D01*
X68549473Y-51538934D01*
X68545545Y-51538438D01*
X68545541Y-51538437D01*
X68421625Y-51522783D01*
X68237318Y-51499500D01*
X67922682Y-51499500D01*
X67738375Y-51522783D01*
X67614459Y-51538437D01*
X67614455Y-51538438D01*
X67610527Y-51538934D01*
X67510958Y-51564499D01*
X67309617Y-51616194D01*
X67309609Y-51616197D01*
X67305775Y-51617181D01*
X67302095Y-51618638D01*
X67302092Y-51618639D01*
X67204014Y-51657471D01*
X67013234Y-51733006D01*
X66737516Y-51884584D01*
X66734312Y-51886912D01*
X66734307Y-51886915D01*
X66533972Y-52032467D01*
X66482970Y-52069522D01*
X66253610Y-52284906D01*
X66053053Y-52527337D01*
X65902655Y-52764327D01*
X65890790Y-52783024D01*
X65884463Y-52792993D01*
X65882779Y-52796572D01*
X65882775Y-52796579D01*
X65805321Y-52961178D01*
X65750497Y-53077685D01*
X65653269Y-53376921D01*
X65594312Y-53685985D01*
X65574556Y-54000000D01*
X60000000Y-54000000D01*
X60000000Y-53727885D01*
X60992000Y-53727885D01*
X60996475Y-53743124D01*
X60997865Y-53744329D01*
X61005548Y-53746000D01*
X62727885Y-53746000D01*
X62743124Y-53741525D01*
X62744329Y-53740135D01*
X62746000Y-53732452D01*
X62746000Y-53727885D01*
X63254000Y-53727885D01*
X63258475Y-53743124D01*
X63259865Y-53744329D01*
X63267548Y-53746000D01*
X64989884Y-53746000D01*
X65005123Y-53741525D01*
X65006328Y-53740135D01*
X65007999Y-53732452D01*
X65007999Y-52455331D01*
X65007629Y-52448510D01*
X65002105Y-52397648D01*
X64998479Y-52382396D01*
X64953324Y-52261946D01*
X64944786Y-52246351D01*
X64868285Y-52144276D01*
X64855724Y-52131715D01*
X64753649Y-52055214D01*
X64738054Y-52046676D01*
X64617606Y-52001522D01*
X64602351Y-51997895D01*
X64551486Y-51992369D01*
X64544672Y-51992000D01*
X63272115Y-51992000D01*
X63256876Y-51996475D01*
X63255671Y-51997865D01*
X63254000Y-52005548D01*
X63254000Y-53727885D01*
X62746000Y-53727885D01*
X62746000Y-52010116D01*
X62741525Y-51994877D01*
X62740135Y-51993672D01*
X62732452Y-51992001D01*
X61455331Y-51992001D01*
X61448510Y-51992371D01*
X61397648Y-51997895D01*
X61382396Y-52001521D01*
X61261946Y-52046676D01*
X61246351Y-52055214D01*
X61144276Y-52131715D01*
X61131715Y-52144276D01*
X61055214Y-52246351D01*
X61046676Y-52261946D01*
X61001522Y-52382394D01*
X60997895Y-52397649D01*
X60992369Y-52448514D01*
X60992000Y-52455328D01*
X60992000Y-53727885D01*
X60000000Y-53727885D01*
X60000000Y-48063343D01*
X60000785Y-48049298D01*
X60001556Y-48042429D01*
X60004741Y-48014029D01*
X60002722Y-47989985D01*
X60002759Y-47968462D01*
X60014231Y-47837332D01*
X60018045Y-47815702D01*
X60057454Y-47668627D01*
X60064966Y-47647988D01*
X60129316Y-47509990D01*
X60140298Y-47490970D01*
X60227635Y-47366239D01*
X60241753Y-47349414D01*
X60349414Y-47241753D01*
X60366239Y-47227635D01*
X60490970Y-47140298D01*
X60509990Y-47129316D01*
X60647988Y-47064966D01*
X60668627Y-47057454D01*
X60702443Y-47048393D01*
X60815706Y-47018044D01*
X60837329Y-47014232D01*
X60955843Y-47003863D01*
X60973678Y-47004081D01*
X60973680Y-47003968D01*
X60979844Y-47004054D01*
X60985969Y-47004741D01*
X61037166Y-47000442D01*
X61047708Y-47000000D01*
X102936657Y-47000000D01*
X102950701Y-47000785D01*
G37*
G04 #@! TD.AperFunction*
M02*
