G04 #@! TF.GenerationSoftware,KiCad,Pcbnew,(6.0.0)*
G04 #@! TF.CreationDate,2022-01-15T23:36:52+01:00*
G04 #@! TF.ProjectId,apa102nano,61706131-3032-46e6-916e-6f2e6b696361,rev?*
G04 #@! TF.SameCoordinates,Original*
G04 #@! TF.FileFunction,Legend,Bot*
G04 #@! TF.FilePolarity,Positive*
%FSLAX46Y46*%
G04 Gerber Fmt 4.6, Leading zero omitted, Abs format (unit mm)*
G04 Created by KiCad (PCBNEW (6.0.0)) date 2022-01-15 23:36:52*
%MOMM*%
%LPD*%
G01*
G04 APERTURE LIST*
G04 #@! TA.AperFunction,Profile*
%ADD10C,0.050000*%
G04 #@! TD*
%ADD11C,3.200000*%
%ADD12C,3.000000*%
%ADD13R,3.000000X3.000000*%
%ADD14C,1.524000*%
G04 APERTURE END LIST*
D10*
X103000000Y-46000000D02*
X61000000Y-46000000D01*
X105000000Y-48000000D02*
G75*
G03*
X103000000Y-46000000I-2000000J0D01*
G01*
X103000000Y-81000000D02*
G75*
G03*
X105000000Y-79000000I0J2000000D01*
G01*
X59000000Y-79000000D02*
G75*
G03*
X61000000Y-81000000I2000000J0D01*
G01*
X61000000Y-46000000D02*
G75*
G03*
X59000000Y-48000000I0J-2000000D01*
G01*
X105000000Y-79000000D02*
X105000000Y-48000000D01*
X61000000Y-81000000D02*
X103000000Y-81000000D01*
X59000000Y-48000000D02*
X59000000Y-79000000D01*
%LPC*%
D11*
X73000000Y-71000000D03*
X92000000Y-71000000D03*
D12*
X78240000Y-54000000D03*
D13*
X63000000Y-54000000D03*
D12*
X73160000Y-54000000D03*
X68080000Y-54000000D03*
X101080000Y-54000000D03*
D13*
X96000000Y-54000000D03*
D14*
X64490000Y-78350000D03*
X67030000Y-78350000D03*
X69570000Y-78350000D03*
X72110000Y-78350000D03*
X74650000Y-78350000D03*
X77190000Y-78350000D03*
X79730000Y-78350000D03*
X82270000Y-78350000D03*
X84810000Y-78350000D03*
X87350000Y-78350000D03*
X89890000Y-78350000D03*
X92430000Y-78350000D03*
X94970000Y-78350000D03*
X97510000Y-78350000D03*
X100050000Y-78350000D03*
X64490000Y-63110000D03*
X67030000Y-63110000D03*
X69570000Y-63110000D03*
X72110000Y-63110000D03*
X74650000Y-63110000D03*
X77190000Y-63110000D03*
X79730000Y-63110000D03*
X82270000Y-63110000D03*
X84810000Y-63110000D03*
X87350000Y-63110000D03*
X89890000Y-63110000D03*
X92430000Y-63110000D03*
X94970000Y-63110000D03*
X97510000Y-63110000D03*
X100050000Y-63110000D03*
M02*
