%FSLAX45Y45*%
G04 Gerber Fmt 4.5, Leading zero omitted, Abs format (unit mm)*
G04 Created by KiCad (PCBNEW (6.0.0)) date 2022-01-15 23:37:23*
%MOMM*%
%LPD*%
G01*
G04 APERTURE LIST*
%TA.AperFunction,Profile*%
%ADD10C,0.050000*%
%TD*%
%ADD11C,0.200000*%
%ADD12C,0.320000*%
G04 APERTURE END LIST*
D10*
X10300000Y-4600000D02*
X6100000Y-4600000D01*
X10500000Y-4800000D02*
G75*
G03*
X10300000Y-4600000I-200000J0D01*
G01*
X10300000Y-8100000D02*
G75*
G03*
X10500000Y-7900000I0J200000D01*
G01*
X5900000Y-7900000D02*
G75*
G03*
X6100000Y-8100000I200000J0D01*
G01*
X6100000Y-4600000D02*
G75*
G03*
X5900000Y-4800000I0J-200000D01*
G01*
X10500000Y-7900000D02*
X10500000Y-4800000D01*
X6100000Y-8100000D02*
X10300000Y-8100000D01*
X5900000Y-4800000D02*
X5900000Y-7900000D01*
D11*
D12*
X7140000Y-6940000D02*
X7460000Y-7260000D01*
X7460000Y-6940000D02*
X7140000Y-7260000D01*
X9040000Y-6940000D02*
X9360000Y-7260000D01*
X9360000Y-6940000D02*
X9040000Y-7260000D01*
D11*
X6155119Y-8412976D02*
X6155119Y-8212976D01*
X6202738Y-8212976D01*
X6231309Y-8222500D01*
X6250357Y-8241548D01*
X6259881Y-8260595D01*
X6269405Y-8298690D01*
X6269405Y-8327262D01*
X6259881Y-8365357D01*
X6250357Y-8384405D01*
X6231309Y-8403452D01*
X6202738Y-8412976D01*
X6155119Y-8412976D01*
X6355119Y-8412976D02*
X6355119Y-8279643D01*
X6355119Y-8317738D02*
X6364643Y-8298690D01*
X6374167Y-8289167D01*
X6393214Y-8279643D01*
X6412262Y-8279643D01*
X6478928Y-8412976D02*
X6478928Y-8279643D01*
X6478928Y-8212976D02*
X6469405Y-8222500D01*
X6478928Y-8232024D01*
X6488452Y-8222500D01*
X6478928Y-8212976D01*
X6478928Y-8232024D01*
X6602738Y-8412976D02*
X6583690Y-8403452D01*
X6574167Y-8384405D01*
X6574167Y-8212976D01*
X6707500Y-8412976D02*
X6688452Y-8403452D01*
X6678928Y-8384405D01*
X6678928Y-8212976D01*
X6936071Y-8412976D02*
X6936071Y-8212976D01*
X7002738Y-8355833D01*
X7069405Y-8212976D01*
X7069405Y-8412976D01*
X7250357Y-8412976D02*
X7250357Y-8308214D01*
X7240833Y-8289167D01*
X7221786Y-8279643D01*
X7183690Y-8279643D01*
X7164643Y-8289167D01*
X7250357Y-8403452D02*
X7231309Y-8412976D01*
X7183690Y-8412976D01*
X7164643Y-8403452D01*
X7155119Y-8384405D01*
X7155119Y-8365357D01*
X7164643Y-8346309D01*
X7183690Y-8336786D01*
X7231309Y-8336786D01*
X7250357Y-8327262D01*
X7345595Y-8279643D02*
X7345595Y-8479643D01*
X7345595Y-8289167D02*
X7364643Y-8279643D01*
X7402738Y-8279643D01*
X7421786Y-8289167D01*
X7431309Y-8298690D01*
X7440833Y-8317738D01*
X7440833Y-8374881D01*
X7431309Y-8393929D01*
X7421786Y-8403452D01*
X7402738Y-8412976D01*
X7364643Y-8412976D01*
X7345595Y-8403452D01*
X7526548Y-8393929D02*
X7536071Y-8403452D01*
X7526548Y-8412976D01*
X7517024Y-8403452D01*
X7526548Y-8393929D01*
X7526548Y-8412976D01*
X7526548Y-8289167D02*
X7536071Y-8298690D01*
X7526548Y-8308214D01*
X7517024Y-8298690D01*
X7526548Y-8289167D01*
X7526548Y-8308214D01*
X5697500Y-8642500D02*
X5897500Y-8842500D01*
X5897500Y-8642500D02*
X5697500Y-8842500D01*
X6136071Y-8632976D02*
X6259881Y-8632976D01*
X6193214Y-8709167D01*
X6221786Y-8709167D01*
X6240833Y-8718690D01*
X6250357Y-8728214D01*
X6259881Y-8747262D01*
X6259881Y-8794881D01*
X6250357Y-8813929D01*
X6240833Y-8823452D01*
X6221786Y-8832976D01*
X6164643Y-8832976D01*
X6145595Y-8823452D01*
X6136071Y-8813929D01*
X6345595Y-8813929D02*
X6355119Y-8823452D01*
X6345595Y-8832976D01*
X6336071Y-8823452D01*
X6345595Y-8813929D01*
X6345595Y-8832976D01*
X6431309Y-8652024D02*
X6440833Y-8642500D01*
X6459881Y-8632976D01*
X6507500Y-8632976D01*
X6526548Y-8642500D01*
X6536071Y-8652024D01*
X6545595Y-8671071D01*
X6545595Y-8690119D01*
X6536071Y-8718690D01*
X6421786Y-8832976D01*
X6545595Y-8832976D01*
X6669405Y-8632976D02*
X6688452Y-8632976D01*
X6707500Y-8642500D01*
X6717024Y-8652024D01*
X6726548Y-8671071D01*
X6736071Y-8709167D01*
X6736071Y-8756786D01*
X6726548Y-8794881D01*
X6717024Y-8813929D01*
X6707500Y-8823452D01*
X6688452Y-8832976D01*
X6669405Y-8832976D01*
X6650357Y-8823452D01*
X6640833Y-8813929D01*
X6631309Y-8794881D01*
X6621786Y-8756786D01*
X6621786Y-8709167D01*
X6631309Y-8671071D01*
X6640833Y-8652024D01*
X6650357Y-8642500D01*
X6669405Y-8632976D01*
X6859881Y-8632976D02*
X6878928Y-8632976D01*
X6897976Y-8642500D01*
X6907500Y-8652024D01*
X6917024Y-8671071D01*
X6926548Y-8709167D01*
X6926548Y-8756786D01*
X6917024Y-8794881D01*
X6907500Y-8813929D01*
X6897976Y-8823452D01*
X6878928Y-8832976D01*
X6859881Y-8832976D01*
X6840833Y-8823452D01*
X6831309Y-8813929D01*
X6821786Y-8794881D01*
X6812262Y-8756786D01*
X6812262Y-8709167D01*
X6821786Y-8671071D01*
X6831309Y-8652024D01*
X6840833Y-8642500D01*
X6859881Y-8632976D01*
X7012262Y-8832976D02*
X7012262Y-8699643D01*
X7012262Y-8718690D02*
X7021786Y-8709167D01*
X7040833Y-8699643D01*
X7069405Y-8699643D01*
X7088452Y-8709167D01*
X7097976Y-8728214D01*
X7097976Y-8832976D01*
X7097976Y-8728214D02*
X7107500Y-8709167D01*
X7126548Y-8699643D01*
X7155119Y-8699643D01*
X7174167Y-8709167D01*
X7183690Y-8728214D01*
X7183690Y-8832976D01*
X7278928Y-8832976D02*
X7278928Y-8699643D01*
X7278928Y-8718690D02*
X7288452Y-8709167D01*
X7307500Y-8699643D01*
X7336071Y-8699643D01*
X7355119Y-8709167D01*
X7364643Y-8728214D01*
X7364643Y-8832976D01*
X7364643Y-8728214D02*
X7374167Y-8709167D01*
X7393214Y-8699643D01*
X7421786Y-8699643D01*
X7440833Y-8709167D01*
X7450357Y-8728214D01*
X7450357Y-8832976D01*
X7840833Y-8623452D02*
X7669405Y-8880595D01*
X8097976Y-8632976D02*
X8117024Y-8632976D01*
X8136071Y-8642500D01*
X8145595Y-8652024D01*
X8155119Y-8671071D01*
X8164643Y-8709167D01*
X8164643Y-8756786D01*
X8155119Y-8794881D01*
X8145595Y-8813929D01*
X8136071Y-8823452D01*
X8117024Y-8832976D01*
X8097976Y-8832976D01*
X8078928Y-8823452D01*
X8069405Y-8813929D01*
X8059881Y-8794881D01*
X8050357Y-8756786D01*
X8050357Y-8709167D01*
X8059881Y-8671071D01*
X8069405Y-8652024D01*
X8078928Y-8642500D01*
X8097976Y-8632976D01*
X8250357Y-8813929D02*
X8259881Y-8823452D01*
X8250357Y-8832976D01*
X8240833Y-8823452D01*
X8250357Y-8813929D01*
X8250357Y-8832976D01*
X8450357Y-8832976D02*
X8336071Y-8832976D01*
X8393214Y-8832976D02*
X8393214Y-8632976D01*
X8374167Y-8661548D01*
X8355119Y-8680595D01*
X8336071Y-8690119D01*
X8526548Y-8652024D02*
X8536071Y-8642500D01*
X8555119Y-8632976D01*
X8602738Y-8632976D01*
X8621786Y-8642500D01*
X8631310Y-8652024D01*
X8640833Y-8671071D01*
X8640833Y-8690119D01*
X8631310Y-8718690D01*
X8517024Y-8832976D01*
X8640833Y-8832976D01*
X8812262Y-8632976D02*
X8774167Y-8632976D01*
X8755119Y-8642500D01*
X8745595Y-8652024D01*
X8726548Y-8680595D01*
X8717024Y-8718690D01*
X8717024Y-8794881D01*
X8726548Y-8813929D01*
X8736071Y-8823452D01*
X8755119Y-8832976D01*
X8793214Y-8832976D01*
X8812262Y-8823452D01*
X8821786Y-8813929D01*
X8831310Y-8794881D01*
X8831310Y-8747262D01*
X8821786Y-8728214D01*
X8812262Y-8718690D01*
X8793214Y-8709167D01*
X8755119Y-8709167D01*
X8736071Y-8718690D01*
X8726548Y-8728214D01*
X8717024Y-8747262D01*
X8955119Y-8632976D02*
X8974167Y-8632976D01*
X8993214Y-8642500D01*
X9002738Y-8652024D01*
X9012262Y-8671071D01*
X9021786Y-8709167D01*
X9021786Y-8756786D01*
X9012262Y-8794881D01*
X9002738Y-8813929D01*
X8993214Y-8823452D01*
X8974167Y-8832976D01*
X8955119Y-8832976D01*
X8936071Y-8823452D01*
X8926548Y-8813929D01*
X8917024Y-8794881D01*
X8907500Y-8756786D01*
X8907500Y-8709167D01*
X8917024Y-8671071D01*
X8926548Y-8652024D01*
X8936071Y-8642500D01*
X8955119Y-8632976D01*
X9097976Y-8632976D02*
X9097976Y-8671071D01*
X9174167Y-8632976D02*
X9174167Y-8671071D01*
X9469405Y-8909167D02*
X9459881Y-8899643D01*
X9440833Y-8871071D01*
X9431310Y-8852024D01*
X9421786Y-8823452D01*
X9412262Y-8775833D01*
X9412262Y-8737738D01*
X9421786Y-8690119D01*
X9431310Y-8661548D01*
X9440833Y-8642500D01*
X9459881Y-8613929D01*
X9469405Y-8604405D01*
X9536071Y-8652024D02*
X9545595Y-8642500D01*
X9564643Y-8632976D01*
X9612262Y-8632976D01*
X9631310Y-8642500D01*
X9640833Y-8652024D01*
X9650357Y-8671071D01*
X9650357Y-8690119D01*
X9640833Y-8718690D01*
X9526548Y-8832976D01*
X9650357Y-8832976D01*
X9888452Y-8832976D02*
X9888452Y-8632976D01*
X9974167Y-8832976D02*
X9974167Y-8728214D01*
X9964643Y-8709167D01*
X9945595Y-8699643D01*
X9917024Y-8699643D01*
X9897976Y-8709167D01*
X9888452Y-8718690D01*
X10097976Y-8832976D02*
X10078929Y-8823452D01*
X10069405Y-8813929D01*
X10059881Y-8794881D01*
X10059881Y-8737738D01*
X10069405Y-8718690D01*
X10078929Y-8709167D01*
X10097976Y-8699643D01*
X10126548Y-8699643D01*
X10145595Y-8709167D01*
X10155119Y-8718690D01*
X10164643Y-8737738D01*
X10164643Y-8794881D01*
X10155119Y-8813929D01*
X10145595Y-8823452D01*
X10126548Y-8832976D01*
X10097976Y-8832976D01*
X10278929Y-8832976D02*
X10259881Y-8823452D01*
X10250357Y-8804405D01*
X10250357Y-8632976D01*
X10431310Y-8823452D02*
X10412262Y-8832976D01*
X10374167Y-8832976D01*
X10355119Y-8823452D01*
X10345595Y-8804405D01*
X10345595Y-8728214D01*
X10355119Y-8709167D01*
X10374167Y-8699643D01*
X10412262Y-8699643D01*
X10431310Y-8709167D01*
X10440833Y-8728214D01*
X10440833Y-8747262D01*
X10345595Y-8766310D01*
X10517024Y-8823452D02*
X10536071Y-8832976D01*
X10574167Y-8832976D01*
X10593214Y-8823452D01*
X10602738Y-8804405D01*
X10602738Y-8794881D01*
X10593214Y-8775833D01*
X10574167Y-8766310D01*
X10545595Y-8766310D01*
X10526548Y-8756786D01*
X10517024Y-8737738D01*
X10517024Y-8728214D01*
X10526548Y-8709167D01*
X10545595Y-8699643D01*
X10574167Y-8699643D01*
X10593214Y-8709167D01*
X10669405Y-8909167D02*
X10678929Y-8899643D01*
X10697976Y-8871071D01*
X10707500Y-8852024D01*
X10717024Y-8823452D01*
X10726548Y-8775833D01*
X10726548Y-8737738D01*
X10717024Y-8690119D01*
X10707500Y-8661548D01*
X10697976Y-8642500D01*
X10678929Y-8613929D01*
X10669405Y-8604405D01*
X11031310Y-8909167D02*
X11021786Y-8899643D01*
X11002738Y-8871071D01*
X10993214Y-8852024D01*
X10983690Y-8823452D01*
X10974167Y-8775833D01*
X10974167Y-8737738D01*
X10983690Y-8690119D01*
X10993214Y-8661548D01*
X11002738Y-8642500D01*
X11021786Y-8613929D01*
X11031310Y-8604405D01*
X11107500Y-8699643D02*
X11107500Y-8832976D01*
X11107500Y-8718690D02*
X11117024Y-8709167D01*
X11136071Y-8699643D01*
X11164643Y-8699643D01*
X11183690Y-8709167D01*
X11193214Y-8728214D01*
X11193214Y-8832976D01*
X11317024Y-8832976D02*
X11297976Y-8823452D01*
X11288452Y-8813929D01*
X11278928Y-8794881D01*
X11278928Y-8737738D01*
X11288452Y-8718690D01*
X11297976Y-8709167D01*
X11317024Y-8699643D01*
X11345595Y-8699643D01*
X11364643Y-8709167D01*
X11374167Y-8718690D01*
X11383690Y-8737738D01*
X11383690Y-8794881D01*
X11374167Y-8813929D01*
X11364643Y-8823452D01*
X11345595Y-8832976D01*
X11317024Y-8832976D01*
X11440833Y-8699643D02*
X11517024Y-8699643D01*
X11469405Y-8632976D02*
X11469405Y-8804405D01*
X11478928Y-8823452D01*
X11497976Y-8832976D01*
X11517024Y-8832976D01*
X11736071Y-8699643D02*
X11736071Y-8899643D01*
X11736071Y-8709167D02*
X11755119Y-8699643D01*
X11793214Y-8699643D01*
X11812262Y-8709167D01*
X11821786Y-8718690D01*
X11831309Y-8737738D01*
X11831309Y-8794881D01*
X11821786Y-8813929D01*
X11812262Y-8823452D01*
X11793214Y-8832976D01*
X11755119Y-8832976D01*
X11736071Y-8823452D01*
X11945595Y-8832976D02*
X11926548Y-8823452D01*
X11917024Y-8804405D01*
X11917024Y-8632976D01*
X12107500Y-8832976D02*
X12107500Y-8728214D01*
X12097976Y-8709167D01*
X12078928Y-8699643D01*
X12040833Y-8699643D01*
X12021786Y-8709167D01*
X12107500Y-8823452D02*
X12088452Y-8832976D01*
X12040833Y-8832976D01*
X12021786Y-8823452D01*
X12012262Y-8804405D01*
X12012262Y-8785357D01*
X12021786Y-8766310D01*
X12040833Y-8756786D01*
X12088452Y-8756786D01*
X12107500Y-8747262D01*
X12174167Y-8699643D02*
X12250357Y-8699643D01*
X12202738Y-8632976D02*
X12202738Y-8804405D01*
X12212262Y-8823452D01*
X12231309Y-8832976D01*
X12250357Y-8832976D01*
X12393214Y-8823452D02*
X12374167Y-8832976D01*
X12336071Y-8832976D01*
X12317024Y-8823452D01*
X12307500Y-8804405D01*
X12307500Y-8728214D01*
X12317024Y-8709167D01*
X12336071Y-8699643D01*
X12374167Y-8699643D01*
X12393214Y-8709167D01*
X12402738Y-8728214D01*
X12402738Y-8747262D01*
X12307500Y-8766310D01*
X12574167Y-8832976D02*
X12574167Y-8632976D01*
X12574167Y-8823452D02*
X12555119Y-8832976D01*
X12517024Y-8832976D01*
X12497976Y-8823452D01*
X12488452Y-8813929D01*
X12478928Y-8794881D01*
X12478928Y-8737738D01*
X12488452Y-8718690D01*
X12497976Y-8709167D01*
X12517024Y-8699643D01*
X12555119Y-8699643D01*
X12574167Y-8709167D01*
X12650357Y-8909167D02*
X12659881Y-8899643D01*
X12678928Y-8871071D01*
X12688452Y-8852024D01*
X12697976Y-8823452D01*
X12707500Y-8775833D01*
X12707500Y-8737738D01*
X12697976Y-8690119D01*
X12688452Y-8661548D01*
X12678928Y-8642500D01*
X12659881Y-8613929D01*
X12650357Y-8604405D01*
M02*
