M48
; DRILL file {KiCad (6.0.0)} date Sat Jan 15 23:37:14 2022
; FORMAT={-:-/ absolute / metric / decimal}
; #@! TF.CreationDate,2022-01-15T23:37:14+01:00
; #@! TF.GenerationSoftware,Kicad,Pcbnew,(6.0.0)
; #@! TF.FileFunction,Plated,1,2,PTH
FMAT,2
METRIC
; #@! TA.AperFunction,Plated,PTH,ComponentDrill
T1C0.762
; #@! TA.AperFunction,Plated,PTH,ComponentDrill
T2C1.520
%
G90
G05
T1
X64.49Y-63.11
X64.49Y-78.35
X67.03Y-63.11
X67.03Y-78.35
X69.57Y-63.11
X69.57Y-78.35
X72.11Y-63.11
X72.11Y-78.35
X74.65Y-63.11
X74.65Y-78.35
X77.19Y-63.11
X77.19Y-78.35
X79.73Y-63.11
X79.73Y-78.35
X82.27Y-63.11
X82.27Y-78.35
X84.81Y-63.11
X84.81Y-78.35
X87.35Y-63.11
X87.35Y-78.35
X89.89Y-63.11
X89.89Y-78.35
X92.43Y-63.11
X92.43Y-78.35
X94.97Y-63.11
X94.97Y-78.35
X97.51Y-63.11
X97.51Y-78.35
X100.05Y-63.11
X100.05Y-78.35
T2
X63.0Y-54.0
X68.08Y-54.0
X73.16Y-54.0
X78.24Y-54.0
X96.0Y-54.0
X101.08Y-54.0
T0
M30
