%FSLAX45Y45*%
G04 Gerber Fmt 4.5, Leading zero omitted, Abs format (unit mm)*
G04 Created by KiCad (PCBNEW (6.0.0)) date 2022-01-15 23:37:23*
%MOMM*%
%LPD*%
G01*
G04 APERTURE LIST*
%TA.AperFunction,Profile*%
%ADD10C,0.050000*%
%TD*%
%ADD11C,0.200000*%
%ADD12C,0.076200*%
%ADD13C,0.152000*%
G04 APERTURE END LIST*
D10*
X10300000Y-4600000D02*
X6100000Y-4600000D01*
X10500000Y-4800000D02*
G75*
G03*
X10300000Y-4600000I-200000J0D01*
G01*
X10300000Y-8100000D02*
G75*
G03*
X10500000Y-7900000I0J200000D01*
G01*
X5900000Y-7900000D02*
G75*
G03*
X6100000Y-8100000I200000J0D01*
G01*
X6100000Y-4600000D02*
G75*
G03*
X5900000Y-4800000I0J-200000D01*
G01*
X10500000Y-7900000D02*
X10500000Y-4800000D01*
X6100000Y-8100000D02*
X10300000Y-8100000D01*
X5900000Y-4800000D02*
X5900000Y-7900000D01*
D11*
D12*
X6410900Y-6272900D02*
X6487100Y-6349100D01*
X6487100Y-6272900D02*
X6410900Y-6349100D01*
X6410900Y-7796900D02*
X6487100Y-7873100D01*
X6487100Y-7796900D02*
X6410900Y-7873100D01*
X6664900Y-6272900D02*
X6741100Y-6349100D01*
X6741100Y-6272900D02*
X6664900Y-6349100D01*
X6664900Y-7796900D02*
X6741100Y-7873100D01*
X6741100Y-7796900D02*
X6664900Y-7873100D01*
X6918900Y-6272900D02*
X6995100Y-6349100D01*
X6995100Y-6272900D02*
X6918900Y-6349100D01*
X6918900Y-7796900D02*
X6995100Y-7873100D01*
X6995100Y-7796900D02*
X6918900Y-7873100D01*
X7172900Y-6272900D02*
X7249100Y-6349100D01*
X7249100Y-6272900D02*
X7172900Y-6349100D01*
X7172900Y-7796900D02*
X7249100Y-7873100D01*
X7249100Y-7796900D02*
X7172900Y-7873100D01*
X7426900Y-6272900D02*
X7503100Y-6349100D01*
X7503100Y-6272900D02*
X7426900Y-6349100D01*
X7426900Y-7796900D02*
X7503100Y-7873100D01*
X7503100Y-7796900D02*
X7426900Y-7873100D01*
X7680900Y-6272900D02*
X7757100Y-6349100D01*
X7757100Y-6272900D02*
X7680900Y-6349100D01*
X7680900Y-7796900D02*
X7757100Y-7873100D01*
X7757100Y-7796900D02*
X7680900Y-7873100D01*
X7934900Y-6272900D02*
X8011100Y-6349100D01*
X8011100Y-6272900D02*
X7934900Y-6349100D01*
X7934900Y-7796900D02*
X8011100Y-7873100D01*
X8011100Y-7796900D02*
X7934900Y-7873100D01*
X8188900Y-6272900D02*
X8265100Y-6349100D01*
X8265100Y-6272900D02*
X8188900Y-6349100D01*
X8188900Y-7796900D02*
X8265100Y-7873100D01*
X8265100Y-7796900D02*
X8188900Y-7873100D01*
X8442900Y-6272900D02*
X8519100Y-6349100D01*
X8519100Y-6272900D02*
X8442900Y-6349100D01*
X8442900Y-7796900D02*
X8519100Y-7873100D01*
X8519100Y-7796900D02*
X8442900Y-7873100D01*
X8696900Y-6272900D02*
X8773100Y-6349100D01*
X8773100Y-6272900D02*
X8696900Y-6349100D01*
X8696900Y-7796900D02*
X8773100Y-7873100D01*
X8773100Y-7796900D02*
X8696900Y-7873100D01*
X8950900Y-6272900D02*
X9027100Y-6349100D01*
X9027100Y-6272900D02*
X8950900Y-6349100D01*
X8950900Y-7796900D02*
X9027100Y-7873100D01*
X9027100Y-7796900D02*
X8950900Y-7873100D01*
X9204900Y-6272900D02*
X9281100Y-6349100D01*
X9281100Y-6272900D02*
X9204900Y-6349100D01*
X9204900Y-7796900D02*
X9281100Y-7873100D01*
X9281100Y-7796900D02*
X9204900Y-7873100D01*
X9458900Y-6272900D02*
X9535100Y-6349100D01*
X9535100Y-6272900D02*
X9458900Y-6349100D01*
X9458900Y-7796900D02*
X9535100Y-7873100D01*
X9535100Y-7796900D02*
X9458900Y-7873100D01*
X9712900Y-6272900D02*
X9789100Y-6349100D01*
X9789100Y-6272900D02*
X9712900Y-6349100D01*
X9712900Y-7796900D02*
X9789100Y-7873100D01*
X9789100Y-7796900D02*
X9712900Y-7873100D01*
X9966900Y-6272900D02*
X10043100Y-6349100D01*
X10043100Y-6272900D02*
X9966900Y-6349100D01*
X9966900Y-7796900D02*
X10043100Y-7873100D01*
X10043100Y-7796900D02*
X9966900Y-7873100D01*
D13*
X6376000Y-5400000D02*
G75*
G03*
X6376000Y-5400000I-76000J0D01*
G01*
X6884000Y-5400000D02*
G75*
G03*
X6884000Y-5400000I-76000J0D01*
G01*
X7392000Y-5400000D02*
G75*
G03*
X7392000Y-5400000I-76000J0D01*
G01*
X7900000Y-5400000D02*
G75*
G03*
X7900000Y-5400000I-76000J0D01*
G01*
X9676000Y-5400000D02*
G75*
G03*
X9676000Y-5400000I-76000J0D01*
G01*
X10184000Y-5400000D02*
G75*
G03*
X10184000Y-5400000I-76000J0D01*
G01*
D11*
X6155119Y-8412976D02*
X6155119Y-8212976D01*
X6202738Y-8212976D01*
X6231309Y-8222500D01*
X6250357Y-8241548D01*
X6259881Y-8260595D01*
X6269405Y-8298690D01*
X6269405Y-8327262D01*
X6259881Y-8365357D01*
X6250357Y-8384405D01*
X6231309Y-8403452D01*
X6202738Y-8412976D01*
X6155119Y-8412976D01*
X6355119Y-8412976D02*
X6355119Y-8279643D01*
X6355119Y-8317738D02*
X6364643Y-8298690D01*
X6374167Y-8289167D01*
X6393214Y-8279643D01*
X6412262Y-8279643D01*
X6478928Y-8412976D02*
X6478928Y-8279643D01*
X6478928Y-8212976D02*
X6469405Y-8222500D01*
X6478928Y-8232024D01*
X6488452Y-8222500D01*
X6478928Y-8212976D01*
X6478928Y-8232024D01*
X6602738Y-8412976D02*
X6583690Y-8403452D01*
X6574167Y-8384405D01*
X6574167Y-8212976D01*
X6707500Y-8412976D02*
X6688452Y-8403452D01*
X6678928Y-8384405D01*
X6678928Y-8212976D01*
X6936071Y-8412976D02*
X6936071Y-8212976D01*
X7002738Y-8355833D01*
X7069405Y-8212976D01*
X7069405Y-8412976D01*
X7250357Y-8412976D02*
X7250357Y-8308214D01*
X7240833Y-8289167D01*
X7221786Y-8279643D01*
X7183690Y-8279643D01*
X7164643Y-8289167D01*
X7250357Y-8403452D02*
X7231309Y-8412976D01*
X7183690Y-8412976D01*
X7164643Y-8403452D01*
X7155119Y-8384405D01*
X7155119Y-8365357D01*
X7164643Y-8346309D01*
X7183690Y-8336786D01*
X7231309Y-8336786D01*
X7250357Y-8327262D01*
X7345595Y-8279643D02*
X7345595Y-8479643D01*
X7345595Y-8289167D02*
X7364643Y-8279643D01*
X7402738Y-8279643D01*
X7421786Y-8289167D01*
X7431309Y-8298690D01*
X7440833Y-8317738D01*
X7440833Y-8374881D01*
X7431309Y-8393929D01*
X7421786Y-8403452D01*
X7402738Y-8412976D01*
X7364643Y-8412976D01*
X7345595Y-8403452D01*
X7526548Y-8393929D02*
X7536071Y-8403452D01*
X7526548Y-8412976D01*
X7517024Y-8403452D01*
X7526548Y-8393929D01*
X7526548Y-8412976D01*
X7526548Y-8289167D02*
X7536071Y-8298690D01*
X7526548Y-8308214D01*
X7517024Y-8298690D01*
X7526548Y-8289167D01*
X7526548Y-8308214D01*
D12*
X5821300Y-8704400D02*
X5897500Y-8780600D01*
X5897500Y-8704400D02*
X5821300Y-8780600D01*
D11*
X6193214Y-8632976D02*
X6212262Y-8632976D01*
X6231309Y-8642500D01*
X6240833Y-8652024D01*
X6250357Y-8671071D01*
X6259881Y-8709167D01*
X6259881Y-8756786D01*
X6250357Y-8794881D01*
X6240833Y-8813929D01*
X6231309Y-8823452D01*
X6212262Y-8832976D01*
X6193214Y-8832976D01*
X6174167Y-8823452D01*
X6164643Y-8813929D01*
X6155119Y-8794881D01*
X6145595Y-8756786D01*
X6145595Y-8709167D01*
X6155119Y-8671071D01*
X6164643Y-8652024D01*
X6174167Y-8642500D01*
X6193214Y-8632976D01*
X6345595Y-8813929D02*
X6355119Y-8823452D01*
X6345595Y-8832976D01*
X6336071Y-8823452D01*
X6345595Y-8813929D01*
X6345595Y-8832976D01*
X6421786Y-8632976D02*
X6555119Y-8632976D01*
X6469405Y-8832976D01*
X6717024Y-8632976D02*
X6678928Y-8632976D01*
X6659881Y-8642500D01*
X6650357Y-8652024D01*
X6631309Y-8680595D01*
X6621786Y-8718690D01*
X6621786Y-8794881D01*
X6631309Y-8813929D01*
X6640833Y-8823452D01*
X6659881Y-8832976D01*
X6697976Y-8832976D01*
X6717024Y-8823452D01*
X6726548Y-8813929D01*
X6736071Y-8794881D01*
X6736071Y-8747262D01*
X6726548Y-8728214D01*
X6717024Y-8718690D01*
X6697976Y-8709167D01*
X6659881Y-8709167D01*
X6640833Y-8718690D01*
X6631309Y-8728214D01*
X6621786Y-8747262D01*
X6812262Y-8652024D02*
X6821786Y-8642500D01*
X6840833Y-8632976D01*
X6888452Y-8632976D01*
X6907500Y-8642500D01*
X6917024Y-8652024D01*
X6926548Y-8671071D01*
X6926548Y-8690119D01*
X6917024Y-8718690D01*
X6802738Y-8832976D01*
X6926548Y-8832976D01*
X7012262Y-8832976D02*
X7012262Y-8699643D01*
X7012262Y-8718690D02*
X7021786Y-8709167D01*
X7040833Y-8699643D01*
X7069405Y-8699643D01*
X7088452Y-8709167D01*
X7097976Y-8728214D01*
X7097976Y-8832976D01*
X7097976Y-8728214D02*
X7107500Y-8709167D01*
X7126548Y-8699643D01*
X7155119Y-8699643D01*
X7174167Y-8709167D01*
X7183690Y-8728214D01*
X7183690Y-8832976D01*
X7278928Y-8832976D02*
X7278928Y-8699643D01*
X7278928Y-8718690D02*
X7288452Y-8709167D01*
X7307500Y-8699643D01*
X7336071Y-8699643D01*
X7355119Y-8709167D01*
X7364643Y-8728214D01*
X7364643Y-8832976D01*
X7364643Y-8728214D02*
X7374167Y-8709167D01*
X7393214Y-8699643D01*
X7421786Y-8699643D01*
X7440833Y-8709167D01*
X7450357Y-8728214D01*
X7450357Y-8832976D01*
X7840833Y-8623452D02*
X7669405Y-8880595D01*
X8097976Y-8632976D02*
X8117024Y-8632976D01*
X8136071Y-8642500D01*
X8145595Y-8652024D01*
X8155119Y-8671071D01*
X8164643Y-8709167D01*
X8164643Y-8756786D01*
X8155119Y-8794881D01*
X8145595Y-8813929D01*
X8136071Y-8823452D01*
X8117024Y-8832976D01*
X8097976Y-8832976D01*
X8078928Y-8823452D01*
X8069405Y-8813929D01*
X8059881Y-8794881D01*
X8050357Y-8756786D01*
X8050357Y-8709167D01*
X8059881Y-8671071D01*
X8069405Y-8652024D01*
X8078928Y-8642500D01*
X8097976Y-8632976D01*
X8250357Y-8813929D02*
X8259881Y-8823452D01*
X8250357Y-8832976D01*
X8240833Y-8823452D01*
X8250357Y-8813929D01*
X8250357Y-8832976D01*
X8383690Y-8632976D02*
X8402738Y-8632976D01*
X8421786Y-8642500D01*
X8431310Y-8652024D01*
X8440833Y-8671071D01*
X8450357Y-8709167D01*
X8450357Y-8756786D01*
X8440833Y-8794881D01*
X8431310Y-8813929D01*
X8421786Y-8823452D01*
X8402738Y-8832976D01*
X8383690Y-8832976D01*
X8364643Y-8823452D01*
X8355119Y-8813929D01*
X8345595Y-8794881D01*
X8336071Y-8756786D01*
X8336071Y-8709167D01*
X8345595Y-8671071D01*
X8355119Y-8652024D01*
X8364643Y-8642500D01*
X8383690Y-8632976D01*
X8517024Y-8632976D02*
X8640833Y-8632976D01*
X8574167Y-8709167D01*
X8602738Y-8709167D01*
X8621786Y-8718690D01*
X8631310Y-8728214D01*
X8640833Y-8747262D01*
X8640833Y-8794881D01*
X8631310Y-8813929D01*
X8621786Y-8823452D01*
X8602738Y-8832976D01*
X8545595Y-8832976D01*
X8526548Y-8823452D01*
X8517024Y-8813929D01*
X8764643Y-8632976D02*
X8783690Y-8632976D01*
X8802738Y-8642500D01*
X8812262Y-8652024D01*
X8821786Y-8671071D01*
X8831310Y-8709167D01*
X8831310Y-8756786D01*
X8821786Y-8794881D01*
X8812262Y-8813929D01*
X8802738Y-8823452D01*
X8783690Y-8832976D01*
X8764643Y-8832976D01*
X8745595Y-8823452D01*
X8736071Y-8813929D01*
X8726548Y-8794881D01*
X8717024Y-8756786D01*
X8717024Y-8709167D01*
X8726548Y-8671071D01*
X8736071Y-8652024D01*
X8745595Y-8642500D01*
X8764643Y-8632976D01*
X8955119Y-8632976D02*
X8974167Y-8632976D01*
X8993214Y-8642500D01*
X9002738Y-8652024D01*
X9012262Y-8671071D01*
X9021786Y-8709167D01*
X9021786Y-8756786D01*
X9012262Y-8794881D01*
X9002738Y-8813929D01*
X8993214Y-8823452D01*
X8974167Y-8832976D01*
X8955119Y-8832976D01*
X8936071Y-8823452D01*
X8926548Y-8813929D01*
X8917024Y-8794881D01*
X8907500Y-8756786D01*
X8907500Y-8709167D01*
X8917024Y-8671071D01*
X8926548Y-8652024D01*
X8936071Y-8642500D01*
X8955119Y-8632976D01*
X9097976Y-8632976D02*
X9097976Y-8671071D01*
X9174167Y-8632976D02*
X9174167Y-8671071D01*
X9469405Y-8909167D02*
X9459881Y-8899643D01*
X9440833Y-8871071D01*
X9431310Y-8852024D01*
X9421786Y-8823452D01*
X9412262Y-8775833D01*
X9412262Y-8737738D01*
X9421786Y-8690119D01*
X9431310Y-8661548D01*
X9440833Y-8642500D01*
X9459881Y-8613929D01*
X9469405Y-8604405D01*
X9526548Y-8632976D02*
X9650357Y-8632976D01*
X9583690Y-8709167D01*
X9612262Y-8709167D01*
X9631310Y-8718690D01*
X9640833Y-8728214D01*
X9650357Y-8747262D01*
X9650357Y-8794881D01*
X9640833Y-8813929D01*
X9631310Y-8823452D01*
X9612262Y-8832976D01*
X9555119Y-8832976D01*
X9536071Y-8823452D01*
X9526548Y-8813929D01*
X9774167Y-8632976D02*
X9793214Y-8632976D01*
X9812262Y-8642500D01*
X9821786Y-8652024D01*
X9831310Y-8671071D01*
X9840833Y-8709167D01*
X9840833Y-8756786D01*
X9831310Y-8794881D01*
X9821786Y-8813929D01*
X9812262Y-8823452D01*
X9793214Y-8832976D01*
X9774167Y-8832976D01*
X9755119Y-8823452D01*
X9745595Y-8813929D01*
X9736071Y-8794881D01*
X9726548Y-8756786D01*
X9726548Y-8709167D01*
X9736071Y-8671071D01*
X9745595Y-8652024D01*
X9755119Y-8642500D01*
X9774167Y-8632976D01*
X10078929Y-8832976D02*
X10078929Y-8632976D01*
X10164643Y-8832976D02*
X10164643Y-8728214D01*
X10155119Y-8709167D01*
X10136071Y-8699643D01*
X10107500Y-8699643D01*
X10088452Y-8709167D01*
X10078929Y-8718690D01*
X10288452Y-8832976D02*
X10269405Y-8823452D01*
X10259881Y-8813929D01*
X10250357Y-8794881D01*
X10250357Y-8737738D01*
X10259881Y-8718690D01*
X10269405Y-8709167D01*
X10288452Y-8699643D01*
X10317024Y-8699643D01*
X10336071Y-8709167D01*
X10345595Y-8718690D01*
X10355119Y-8737738D01*
X10355119Y-8794881D01*
X10345595Y-8813929D01*
X10336071Y-8823452D01*
X10317024Y-8832976D01*
X10288452Y-8832976D01*
X10469405Y-8832976D02*
X10450357Y-8823452D01*
X10440833Y-8804405D01*
X10440833Y-8632976D01*
X10621786Y-8823452D02*
X10602738Y-8832976D01*
X10564643Y-8832976D01*
X10545595Y-8823452D01*
X10536071Y-8804405D01*
X10536071Y-8728214D01*
X10545595Y-8709167D01*
X10564643Y-8699643D01*
X10602738Y-8699643D01*
X10621786Y-8709167D01*
X10631310Y-8728214D01*
X10631310Y-8747262D01*
X10536071Y-8766310D01*
X10707500Y-8823452D02*
X10726548Y-8832976D01*
X10764643Y-8832976D01*
X10783690Y-8823452D01*
X10793214Y-8804405D01*
X10793214Y-8794881D01*
X10783690Y-8775833D01*
X10764643Y-8766310D01*
X10736071Y-8766310D01*
X10717024Y-8756786D01*
X10707500Y-8737738D01*
X10707500Y-8728214D01*
X10717024Y-8709167D01*
X10736071Y-8699643D01*
X10764643Y-8699643D01*
X10783690Y-8709167D01*
X10859881Y-8909167D02*
X10869405Y-8899643D01*
X10888452Y-8871071D01*
X10897976Y-8852024D01*
X10907500Y-8823452D01*
X10917024Y-8775833D01*
X10917024Y-8737738D01*
X10907500Y-8690119D01*
X10897976Y-8661548D01*
X10888452Y-8642500D01*
X10869405Y-8613929D01*
X10859881Y-8604405D01*
D13*
X5897500Y-9006500D02*
G75*
G03*
X5897500Y-9006500I-76000J0D01*
G01*
D11*
X6259881Y-9096976D02*
X6145595Y-9096976D01*
X6202738Y-9096976D02*
X6202738Y-8896976D01*
X6183690Y-8925548D01*
X6164643Y-8944595D01*
X6145595Y-8954119D01*
X6345595Y-9077929D02*
X6355119Y-9087452D01*
X6345595Y-9096976D01*
X6336071Y-9087452D01*
X6345595Y-9077929D01*
X6345595Y-9096976D01*
X6536071Y-8896976D02*
X6440833Y-8896976D01*
X6431309Y-8992214D01*
X6440833Y-8982690D01*
X6459881Y-8973167D01*
X6507500Y-8973167D01*
X6526548Y-8982690D01*
X6536071Y-8992214D01*
X6545595Y-9011262D01*
X6545595Y-9058881D01*
X6536071Y-9077929D01*
X6526548Y-9087452D01*
X6507500Y-9096976D01*
X6459881Y-9096976D01*
X6440833Y-9087452D01*
X6431309Y-9077929D01*
X6621786Y-8916024D02*
X6631309Y-8906500D01*
X6650357Y-8896976D01*
X6697976Y-8896976D01*
X6717024Y-8906500D01*
X6726548Y-8916024D01*
X6736071Y-8935071D01*
X6736071Y-8954119D01*
X6726548Y-8982690D01*
X6612262Y-9096976D01*
X6736071Y-9096976D01*
X6859881Y-8896976D02*
X6878928Y-8896976D01*
X6897976Y-8906500D01*
X6907500Y-8916024D01*
X6917024Y-8935071D01*
X6926548Y-8973167D01*
X6926548Y-9020786D01*
X6917024Y-9058881D01*
X6907500Y-9077929D01*
X6897976Y-9087452D01*
X6878928Y-9096976D01*
X6859881Y-9096976D01*
X6840833Y-9087452D01*
X6831309Y-9077929D01*
X6821786Y-9058881D01*
X6812262Y-9020786D01*
X6812262Y-8973167D01*
X6821786Y-8935071D01*
X6831309Y-8916024D01*
X6840833Y-8906500D01*
X6859881Y-8896976D01*
X7012262Y-9096976D02*
X7012262Y-8963643D01*
X7012262Y-8982690D02*
X7021786Y-8973167D01*
X7040833Y-8963643D01*
X7069405Y-8963643D01*
X7088452Y-8973167D01*
X7097976Y-8992214D01*
X7097976Y-9096976D01*
X7097976Y-8992214D02*
X7107500Y-8973167D01*
X7126548Y-8963643D01*
X7155119Y-8963643D01*
X7174167Y-8973167D01*
X7183690Y-8992214D01*
X7183690Y-9096976D01*
X7278928Y-9096976D02*
X7278928Y-8963643D01*
X7278928Y-8982690D02*
X7288452Y-8973167D01*
X7307500Y-8963643D01*
X7336071Y-8963643D01*
X7355119Y-8973167D01*
X7364643Y-8992214D01*
X7364643Y-9096976D01*
X7364643Y-8992214D02*
X7374167Y-8973167D01*
X7393214Y-8963643D01*
X7421786Y-8963643D01*
X7440833Y-8973167D01*
X7450357Y-8992214D01*
X7450357Y-9096976D01*
X7840833Y-8887452D02*
X7669405Y-9144595D01*
X8097976Y-8896976D02*
X8117024Y-8896976D01*
X8136071Y-8906500D01*
X8145595Y-8916024D01*
X8155119Y-8935071D01*
X8164643Y-8973167D01*
X8164643Y-9020786D01*
X8155119Y-9058881D01*
X8145595Y-9077929D01*
X8136071Y-9087452D01*
X8117024Y-9096976D01*
X8097976Y-9096976D01*
X8078928Y-9087452D01*
X8069405Y-9077929D01*
X8059881Y-9058881D01*
X8050357Y-9020786D01*
X8050357Y-8973167D01*
X8059881Y-8935071D01*
X8069405Y-8916024D01*
X8078928Y-8906500D01*
X8097976Y-8896976D01*
X8250357Y-9077929D02*
X8259881Y-9087452D01*
X8250357Y-9096976D01*
X8240833Y-9087452D01*
X8250357Y-9077929D01*
X8250357Y-9096976D01*
X8383690Y-8896976D02*
X8402738Y-8896976D01*
X8421786Y-8906500D01*
X8431310Y-8916024D01*
X8440833Y-8935071D01*
X8450357Y-8973167D01*
X8450357Y-9020786D01*
X8440833Y-9058881D01*
X8431310Y-9077929D01*
X8421786Y-9087452D01*
X8402738Y-9096976D01*
X8383690Y-9096976D01*
X8364643Y-9087452D01*
X8355119Y-9077929D01*
X8345595Y-9058881D01*
X8336071Y-9020786D01*
X8336071Y-8973167D01*
X8345595Y-8935071D01*
X8355119Y-8916024D01*
X8364643Y-8906500D01*
X8383690Y-8896976D01*
X8631310Y-8896976D02*
X8536071Y-8896976D01*
X8526548Y-8992214D01*
X8536071Y-8982690D01*
X8555119Y-8973167D01*
X8602738Y-8973167D01*
X8621786Y-8982690D01*
X8631310Y-8992214D01*
X8640833Y-9011262D01*
X8640833Y-9058881D01*
X8631310Y-9077929D01*
X8621786Y-9087452D01*
X8602738Y-9096976D01*
X8555119Y-9096976D01*
X8536071Y-9087452D01*
X8526548Y-9077929D01*
X8736071Y-9096976D02*
X8774167Y-9096976D01*
X8793214Y-9087452D01*
X8802738Y-9077929D01*
X8821786Y-9049357D01*
X8831310Y-9011262D01*
X8831310Y-8935071D01*
X8821786Y-8916024D01*
X8812262Y-8906500D01*
X8793214Y-8896976D01*
X8755119Y-8896976D01*
X8736071Y-8906500D01*
X8726548Y-8916024D01*
X8717024Y-8935071D01*
X8717024Y-8982690D01*
X8726548Y-9001738D01*
X8736071Y-9011262D01*
X8755119Y-9020786D01*
X8793214Y-9020786D01*
X8812262Y-9011262D01*
X8821786Y-9001738D01*
X8831310Y-8982690D01*
X8945595Y-8982690D02*
X8926548Y-8973167D01*
X8917024Y-8963643D01*
X8907500Y-8944595D01*
X8907500Y-8935071D01*
X8917024Y-8916024D01*
X8926548Y-8906500D01*
X8945595Y-8896976D01*
X8983690Y-8896976D01*
X9002738Y-8906500D01*
X9012262Y-8916024D01*
X9021786Y-8935071D01*
X9021786Y-8944595D01*
X9012262Y-8963643D01*
X9002738Y-8973167D01*
X8983690Y-8982690D01*
X8945595Y-8982690D01*
X8926548Y-8992214D01*
X8917024Y-9001738D01*
X8907500Y-9020786D01*
X8907500Y-9058881D01*
X8917024Y-9077929D01*
X8926548Y-9087452D01*
X8945595Y-9096976D01*
X8983690Y-9096976D01*
X9002738Y-9087452D01*
X9012262Y-9077929D01*
X9021786Y-9058881D01*
X9021786Y-9020786D01*
X9012262Y-9001738D01*
X9002738Y-8992214D01*
X8983690Y-8982690D01*
X9097976Y-8896976D02*
X9097976Y-8935071D01*
X9174167Y-8896976D02*
X9174167Y-8935071D01*
X9469405Y-9173167D02*
X9459881Y-9163643D01*
X9440833Y-9135071D01*
X9431310Y-9116024D01*
X9421786Y-9087452D01*
X9412262Y-9039833D01*
X9412262Y-9001738D01*
X9421786Y-8954119D01*
X9431310Y-8925548D01*
X9440833Y-8906500D01*
X9459881Y-8877929D01*
X9469405Y-8868405D01*
X9631310Y-8896976D02*
X9593214Y-8896976D01*
X9574167Y-8906500D01*
X9564643Y-8916024D01*
X9545595Y-8944595D01*
X9536071Y-8982690D01*
X9536071Y-9058881D01*
X9545595Y-9077929D01*
X9555119Y-9087452D01*
X9574167Y-9096976D01*
X9612262Y-9096976D01*
X9631310Y-9087452D01*
X9640833Y-9077929D01*
X9650357Y-9058881D01*
X9650357Y-9011262D01*
X9640833Y-8992214D01*
X9631310Y-8982690D01*
X9612262Y-8973167D01*
X9574167Y-8973167D01*
X9555119Y-8982690D01*
X9545595Y-8992214D01*
X9536071Y-9011262D01*
X9888452Y-9096976D02*
X9888452Y-8896976D01*
X9974167Y-9096976D02*
X9974167Y-8992214D01*
X9964643Y-8973167D01*
X9945595Y-8963643D01*
X9917024Y-8963643D01*
X9897976Y-8973167D01*
X9888452Y-8982690D01*
X10097976Y-9096976D02*
X10078929Y-9087452D01*
X10069405Y-9077929D01*
X10059881Y-9058881D01*
X10059881Y-9001738D01*
X10069405Y-8982690D01*
X10078929Y-8973167D01*
X10097976Y-8963643D01*
X10126548Y-8963643D01*
X10145595Y-8973167D01*
X10155119Y-8982690D01*
X10164643Y-9001738D01*
X10164643Y-9058881D01*
X10155119Y-9077929D01*
X10145595Y-9087452D01*
X10126548Y-9096976D01*
X10097976Y-9096976D01*
X10278929Y-9096976D02*
X10259881Y-9087452D01*
X10250357Y-9068405D01*
X10250357Y-8896976D01*
X10431310Y-9087452D02*
X10412262Y-9096976D01*
X10374167Y-9096976D01*
X10355119Y-9087452D01*
X10345595Y-9068405D01*
X10345595Y-8992214D01*
X10355119Y-8973167D01*
X10374167Y-8963643D01*
X10412262Y-8963643D01*
X10431310Y-8973167D01*
X10440833Y-8992214D01*
X10440833Y-9011262D01*
X10345595Y-9030310D01*
X10517024Y-9087452D02*
X10536071Y-9096976D01*
X10574167Y-9096976D01*
X10593214Y-9087452D01*
X10602738Y-9068405D01*
X10602738Y-9058881D01*
X10593214Y-9039833D01*
X10574167Y-9030310D01*
X10545595Y-9030310D01*
X10526548Y-9020786D01*
X10517024Y-9001738D01*
X10517024Y-8992214D01*
X10526548Y-8973167D01*
X10545595Y-8963643D01*
X10574167Y-8963643D01*
X10593214Y-8973167D01*
X10669405Y-9173167D02*
X10678929Y-9163643D01*
X10697976Y-9135071D01*
X10707500Y-9116024D01*
X10717024Y-9087452D01*
X10726548Y-9039833D01*
X10726548Y-9001738D01*
X10717024Y-8954119D01*
X10707500Y-8925548D01*
X10697976Y-8906500D01*
X10678929Y-8877929D01*
X10669405Y-8868405D01*
M02*
